<svg width="21" height="23" viewBox="0 0 21 23" fill="none" xmlns="http://www.w3.org/2000/svg">
<path d="M14.8682 23C13.6055 22.9651 12.4831 22.6086 11.399 22.0845C8.26784 20.5644 5.66276 18.2966 3.52641 15.3718C2.18402 13.5337 1.10309 11.5384 0.414358 9.29854C0.130574 8.37602 -0.041609 7.43254 0.00940827 6.45412C0.0476713 5.66439 0.312324 4.98997 0.83844 4.43786C1.35499 3.89274 1.85879 3.33014 2.36577 2.77803C2.61448 2.50198 2.90145 2.29581 3.2522 2.22242C3.82614 2.10012 4.29805 2.33424 4.69662 2.76405C5.32477 3.44196 5.94655 4.13035 6.56832 4.81525C6.78515 5.05287 7.00835 5.28699 7.21879 5.5351C7.61099 5.99635 7.80868 6.5275 7.65563 7.16697C7.56954 7.52689 7.37822 7.81692 7.13908 8.07551C6.6576 8.60316 6.17613 9.12732 5.69465 9.65497C5.50015 9.86463 5.49377 9.89258 5.60537 10.1721C6.0167 11.203 6.62253 12.0905 7.28894 12.9362C8.26465 14.1802 9.34239 15.2949 10.6083 16.179C10.9909 16.448 11.4086 16.6577 11.8104 16.8953C11.957 16.9827 12.0495 16.8918 12.142 16.787C12.6489 16.2314 13.1527 15.6723 13.6629 15.1167C14.0137 14.7358 14.425 14.5087 14.9352 14.5506C15.3305 14.5855 15.659 14.7777 15.9364 15.0747C16.7941 16.0043 17.655 16.9303 18.4968 17.8772C19.1792 18.6425 19.1664 19.6035 18.4809 20.3792C18.1716 20.7321 17.8431 21.0641 17.5275 21.4101C17.3776 21.5743 17.2309 21.742 17.0875 21.9132C16.4497 22.682 15.7419 23.0175 14.8682 23Z" fill="#003CFF"/>
<path d="M20.9998 10.8675C20.4259 10.9758 19.8551 11.0807 19.2621 11.1925C18.8762 8.7674 17.8942 6.68824 16.2839 4.97949C14.6769 3.27423 12.7542 2.26436 10.519 1.91841C10.6019 1.27195 10.6816 0.635977 10.7645 0C16.0575 0.677909 20.2728 5.44774 20.9998 10.8675Z" fill="#003CFF"/>
<path d="M16.775 11.1715C16.1946 11.2799 15.6239 11.3847 15.0563 11.493C14.4856 8.67305 12.9104 7.00274 10.3085 6.45062C10.3851 5.83911 10.468 5.20662 10.5509 4.54619C11.8964 4.73838 13.0858 5.29049 14.1412 6.20602C15.6462 7.51641 16.5709 9.43133 16.775 11.1715Z" fill="#003CFF"/>
</svg>
