<svg width="24" height="19" viewBox="0 0 24 19" fill="none" xmlns="http://www.w3.org/2000/svg">
<path d="M6.91794 8.91652C8.93431 8.91652 10.9507 8.90615 12.9671 8.92689C13.3083 8.92689 13.5048 8.87504 13.6392 8.481C14.0321 7.29887 15.1385 6.5419 16.3587 6.5419C17.5685 6.5419 18.6749 7.30924 19.0782 8.49137C19.2023 8.84394 19.3574 8.92689 19.6986 8.92689C20.8878 8.90615 22.0769 8.92689 23.2661 8.91652C23.6383 8.91652 23.9899 8.97874 24.0002 9.435C24.0209 9.92237 23.659 10.0157 23.2557 10.0053C22.0459 10.0053 20.8464 10.0157 19.6366 9.99496C19.3471 9.99496 19.192 10.0572 19.0886 10.3786C18.6646 11.6022 17.5789 12.3696 16.3484 12.3592C15.0972 12.3592 14.0321 11.6126 13.6185 10.3683C13.4944 10.0053 13.3083 9.99496 13.0084 9.99496C8.99635 9.99496 4.98429 9.99496 0.972224 9.99496C0.796437 9.99496 0.58963 10.0468 0.465546 9.96385C0.279419 9.83941 0.03125 9.61128 0.03125 9.435C0.03125 9.25872 0.279419 9.03059 0.475886 8.91652C0.620651 8.83357 0.848139 8.89578 1.03427 8.89578C2.9886 8.91652 4.95327 8.91652 6.91794 8.91652ZM16.3277 11.2912C17.3307 11.3015 18.1786 10.4616 18.1683 9.45574C18.1683 8.47063 17.3514 7.65144 16.369 7.64107C15.3453 7.6307 14.5285 8.44989 14.5285 9.46611C14.5181 10.4616 15.335 11.2808 16.3277 11.2912Z" fill="#003CFF"/>
<path d="M9.55481 3.44369C9.09984 4.92654 8.1692 5.82869 6.59747 5.79758C5.09811 5.76647 4.20884 4.87469 3.78489 3.44369C2.87493 3.44369 1.95464 3.44369 1.04469 3.44369C0.889583 3.44369 0.734478 3.44369 0.579372 3.44369C0.23814 3.43332 0.0106517 3.28815 0.000311379 2.92522C-0.010029 2.53117 0.23814 2.37563 0.600053 2.37563C1.51001 2.37563 2.4303 2.35489 3.34025 2.37563C3.69182 2.386 3.83659 2.27193 3.95033 1.92974C4.32259 0.789088 5.39798 0.032111 6.56645 0.00100238C7.82797 -0.0301063 8.94473 0.664654 9.34801 1.83641C9.50311 2.29267 9.72026 2.37563 10.1546 2.37563C14.4251 2.35489 18.706 2.36526 22.9766 2.36526C23.1524 2.36526 23.3178 2.36526 23.4936 2.37563C23.8245 2.39637 24.052 2.60376 23.9796 2.91485C23.9279 3.12224 23.6694 3.29852 23.4626 3.43332C23.3695 3.49554 23.1938 3.44369 23.0593 3.44369C18.7681 3.44369 14.4768 3.44369 10.1856 3.44369C9.97877 3.44369 9.77196 3.44369 9.55481 3.44369ZM8.47941 2.88374C8.46907 1.89863 7.65218 1.07944 6.66985 1.06907C5.66683 1.06907 4.8396 1.909 4.84995 2.92522C4.86029 3.94143 5.69785 4.75026 6.71121 4.71915C7.70389 4.69841 8.48975 3.87921 8.47941 2.88374Z" fill="#003CFF"/>
<path d="M6.14247 15.4369C6.5871 13.9851 7.48671 13.0933 9.00675 13.083C10.5578 13.0726 11.4678 13.9851 11.9227 15.4369C12.3674 15.4369 12.7913 15.4369 13.2256 15.4369C16.5139 15.4369 19.8124 15.4369 23.1007 15.4369C23.2765 15.4369 23.4833 15.385 23.6073 15.468C23.7831 15.5924 23.9693 15.8102 23.9899 15.9968C24.0003 16.1524 23.7935 16.3701 23.628 16.4738C23.4833 16.5568 23.2558 16.5153 23.0697 16.5153C19.5229 16.5153 15.9658 16.5257 12.4191 16.5153C12.0675 16.5153 11.8814 16.5982 11.7573 16.9715C11.354 18.1537 10.2683 18.8899 9.02743 18.8899C7.80727 18.8795 6.73187 18.1537 6.33893 16.9923C6.20451 16.5982 6.01838 16.5153 5.63579 16.5257C4.11575 16.5464 2.60606 16.536 1.08602 16.536C0.9516 16.536 0.806835 16.536 0.67241 16.536C0.300157 16.536 0.000285837 16.422 0.0106262 15.9968C0.0106262 15.5717 0.300157 15.4576 0.68275 15.4576C2.31653 15.4576 3.96065 15.4576 5.59443 15.4576C5.75987 15.4369 5.946 15.4369 6.14247 15.4369ZM9.04811 14.1614C8.04509 14.151 7.22821 14.9391 7.20752 15.9346C7.18684 16.9508 7.99339 17.8011 8.99641 17.8115C9.98908 17.8219 10.837 16.9819 10.837 15.9761C10.8473 14.9806 10.0408 14.1718 9.04811 14.1614Z" fill="#003CFF"/>
</svg>
