<svg width="175" height="116" viewBox="0 0 175 116" fill="none" xmlns="http://www.w3.org/2000/svg">
<path d="M-1.52588e-05 28.858C-1.52588e-05 28.9716 -1.52588e-05 28.9716 -1.52588e-05 29.0852C-1.52588e-05 45.1048 13.0222 58.0568 29.1286 58.0568C45.235 58.0568 58.2572 45.1048 58.2572 29.0852C58.2572 28.9716 58.2572 28.9716 58.2572 28.858V0H-1.52588e-05V28.858Z" fill="#003CFF"/>
<path d="M88.1854 72.0314C88.1854 72.145 88.1854 72.145 88.1854 72.0314C88.1854 79.9843 94.5822 86.2331 102.464 86.2331C110.346 86.2331 116.743 79.8707 116.743 72.0314V58.0568H88.1854V72.0314Z" fill="#003CFF"/>
<path d="M88.1854 101.798C88.1854 109.751 94.5822 116 102.464 116C110.346 116 116.743 109.638 116.743 101.798V87.7101H88.1854V101.798Z" fill="#003CFF"/>
<path d="M58.3714 72.0313C58.3714 72.145 58.3714 72.145 58.3714 72.0313C58.3714 79.9843 64.7683 86.2331 72.6501 86.2331C80.532 86.2331 86.9288 79.8707 86.9288 72.0313V58.0568H58.4856V72.0313H58.3714Z" fill="#003CFF"/>
<path d="M58.3714 101.798C58.3714 109.751 64.7683 116 72.6501 116C80.532 116 86.9288 109.638 86.9288 101.798V87.7101H58.4856V101.798H58.3714Z" fill="#003CFF"/>
<path d="M102.236 0H102.578C110.346 0 116.629 6.24878 116.629 13.9745V43.9687C116.629 50.6719 111.945 56.1254 105.663 57.6023C105.32 57.716 105.091 57.716 104.749 57.8296C104.406 57.9432 104.063 57.9432 103.721 57.9432V28.9716H101.208V57.9432C100.865 57.9432 100.522 57.8296 100.065 57.8296C99.7226 57.8296 99.3799 57.716 99.1514 57.6023C92.8688 56.1254 88.1854 50.6719 88.1854 43.9687V13.9745C88.1854 6.24878 94.468 0 102.236 0Z" fill="#003CFF"/>
<path d="M72.4217 0H72.7644C80.532 0 86.8146 6.24878 86.8146 13.9745V43.9687C86.8146 50.6719 82.1312 56.1254 75.8486 57.6023C75.5059 57.716 75.2774 57.716 74.9347 57.8296C74.592 57.9432 74.2493 57.9432 73.9067 57.9432V28.9716H71.3936V57.9432C71.0509 57.9432 70.7082 57.8296 70.2513 57.8296C69.9086 57.8296 69.5659 57.716 69.3375 57.6023C63.0548 56.1254 58.3714 50.6719 58.3714 43.9687V13.9745C58.3714 6.24878 64.654 0 72.4217 0Z" fill="#003CFF"/>
<path d="M0.114197 58.0568V78.1665C0.114197 99.0715 17.2487 116 38.1527 116H58.3714V98.1626H38.1527C27.0724 98.1626 17.934 89.1871 17.934 78.0529V58.0568H0.114197Z" fill="#003CFF"/>
<path d="M145.871 116C129.784 116 116.743 103.029 116.743 87.0284C116.743 71.0278 129.784 58.0568 145.871 58.0568C161.959 58.0568 175 71.0278 175 87.0284C175 103.029 161.959 116 145.871 116Z" fill="#003CFF"/>
<path d="M116.629 58.0568C116.629 58.0568 117.314 32.7209 133.42 16.7013C149.527 0.681684 175 0 175 0C175 0 174.315 25.3359 158.208 41.3555C142.102 57.3751 116.629 58.0568 116.629 58.0568Z" fill="#003CFF"/>
</svg>
