<svg width="18" height="18" viewBox="0 0 18 18" fill="none" xmlns="http://www.w3.org/2000/svg">
<g clip-path="url(#clip0_220_960)">
<path d="M17.5662 7.50526C17.5152 7.50526 17.5152 7.50526 17.4897 7.40434C17.1197 6.16818 16.737 4.91941 16.3671 3.68325L15.9716 2.35879C15.8695 2.01822 15.7675 1.69026 15.6654 1.33707L15.5889 1.13525H15.6399C15.8823 1.13525 16.1247 1.13525 16.3543 1.13525H16.4436C16.5839 1.13525 16.7243 1.13525 16.8773 1.11002C17.0304 1.08479 17.1708 0.996496 17.2473 0.857744C17.3366 0.718991 17.3494 0.55501 17.2983 0.39103C17.2473 0.214436 17.0815 0 16.635 0L6.21257 0C4.61795 0 3.0361 0 1.45424 0C1.25013 0 1.07153 0.0630694 0.95672 0.176594C0.854665 0.277505 0.790881 0.416258 0.803638 0.567624C0.803638 0.895585 1.05878 1.12263 1.44148 1.12263C1.58181 1.12263 1.72214 1.12263 1.86246 1.12263L2.42377 1.13525L2.35998 1.3623C1.73489 3.40575 1.1098 5.44919 0.484715 7.49264L0.471958 7.50526C0.153035 7.59355 -0.0128048 7.79537 -4.78492e-05 8.09811C0.0127091 8.29993 0.025466 8.51437 0.0764936 8.7288C0.306118 9.71268 0.943964 10.5074 1.8497 10.9236C2.72993 11.3273 3.75048 11.3146 4.64347 10.8605C5.74056 10.3055 6.31462 9.38472 6.37841 8.12334C6.39116 7.78276 6.21257 7.55571 5.88089 7.50526C5.88089 7.49264 5.86813 7.48003 5.86813 7.4548L3.95459 1.14786H7.59031V15.3763H7.57756C7.42447 15.3763 7.27139 15.3763 7.11831 15.3763C6.74836 15.3763 6.36565 15.3763 5.98294 15.3763C5.66402 15.3637 5.4344 15.5025 5.29407 15.78C5.15374 16.0701 4.9879 16.3602 4.83482 16.6377C4.75828 16.7765 4.6945 16.9026 4.61795 17.0413C4.54141 17.1927 4.43936 17.4071 4.5159 17.6216C4.59244 17.8234 4.79655 17.9369 4.94963 18L4.9879 18.0126H13.1013L13.1396 18C13.3054 17.9369 13.5095 17.8234 13.5733 17.6216C13.6498 17.4198 13.5605 17.2053 13.4712 17.0413L13.2927 16.7134C13.1268 16.398 12.9482 16.0827 12.7824 15.7547C12.6548 15.5151 12.4507 15.3889 12.17 15.3889H12.1573C11.7363 15.3889 11.3026 15.3889 10.8944 15.3889H10.4861V1.13525H14.0326C13.3947 3.25438 12.7569 5.3609 12.119 7.46741L12.1063 7.48003C11.7618 7.56832 11.596 7.78276 11.6087 8.11072C11.6215 8.32516 11.647 8.53959 11.698 8.75403C12.119 10.4317 13.6754 11.4282 15.4103 11.1254C16.8518 10.8858 18.0127 9.51086 17.9872 8.07288C18 7.78276 17.8214 7.5431 17.5662 7.50526ZM5.15374 8.61528C4.9879 9.25858 4.26076 10.0406 3.24021 10.0659C2.23241 10.0911 1.44148 9.37211 1.23737 8.61528H5.15374ZM1.69662 7.46741L3.17642 2.548L4.66898 7.46741H1.69662ZM6.02121 16.8521C6.085 16.7386 6.13603 16.6251 6.19981 16.5242C6.21257 16.5242 6.22533 16.5242 6.23808 16.5242C7.0035 16.5242 7.76891 16.5242 8.53433 16.5242H9.05736C9.29974 16.5242 9.54212 16.5242 9.77175 16.5242C10.3586 16.5242 10.9709 16.5368 11.5832 16.5116C11.8894 16.4989 11.9659 16.5872 12.0297 16.7765C12.0425 16.8017 12.0552 16.8395 12.068 16.8647H6.02121V16.8521ZM8.76395 15.3637V1.14786H9.33801V15.3637H8.76395ZM16.7625 8.6405C16.5712 9.34688 15.8185 10.0406 14.8618 10.0785C13.9688 10.1163 13.1013 9.48563 12.8462 8.6405H16.7625ZM13.3182 7.48003L14.798 2.548L16.2905 7.48003H13.3182Z" fill="black"/>
</g>
<defs>
<clipPath id="clip0_220_960">
<rect width="18" height="18" fill="white"/>
</clipPath>
</defs>
</svg>
