<svg width="19" height="22" viewBox="0 0 19 22" fill="none" xmlns="http://www.w3.org/2000/svg">
<g clip-path="url(#clip0_220_324)">
<path d="M7.94712 21.9999H4.11058C3.92788 21.9999 3.74519 21.9059 3.65385 21.7178C2.00962 19.3674 0 15.7948 0 12.7862C0 9.58963 2.19231 6.11099 3.92788 3.66655C4.01923 3.57253 4.20192 3.47852 4.38462 3.47852H7.67308C7.85577 3.47852 8.03846 3.57253 8.12981 3.66655C9.95673 6.11099 12.0577 9.58963 12.0577 12.7862C12.0577 15.7948 10.0481 19.3674 8.3125 21.8118C8.22115 21.9059 8.12981 21.9999 7.94712 21.9999ZM4.47596 20.8717H7.67308C9.22596 18.6153 11.0529 15.4187 11.0529 12.7862C11.0529 10.0597 9.13462 6.86313 7.49038 4.60672H4.75C3.37981 6.48706 1.1875 9.9657 1.1875 12.7862C1.09615 15.4187 2.83173 18.6153 4.47596 20.8717Z" fill="#003CFF"/>
<path d="M17.6298 17.3933H16.7164C16.5337 17.3933 16.351 17.2993 16.2597 17.1113C15.8029 16.3592 15.3462 15.325 15.3462 14.3848C15.3462 13.4446 15.8943 12.3164 16.351 11.5643C16.4423 11.3762 16.625 11.2822 16.8077 11.2822H17.6298C17.8125 11.2822 17.9952 11.3762 18.0866 11.5643C18.5433 12.3164 19.0914 13.3506 19.0914 14.3848C19.0914 15.325 18.5433 16.3592 18.1779 17.1113C17.9952 17.2993 17.8125 17.3933 17.6298 17.3933ZM17.0818 16.2651H17.3558C17.7212 15.513 17.9952 14.8549 17.9952 14.3848C17.9952 13.9147 17.7212 13.2566 17.3558 12.5044H17.1731C16.7164 13.2566 16.5337 13.9147 16.5337 14.3848C16.4423 14.8549 16.625 15.513 17.0818 16.2651Z" fill="#003CFF"/>
<path d="M7.67308 4.51297C7.30769 4.51297 7.125 4.23092 7.125 3.94887C7.125 3.66682 7.39904 3.38477 7.67308 3.38477C7.94711 3.38477 8.22115 3.66682 8.22115 3.94887C8.22115 4.23092 8.03846 4.51297 7.67308 4.51297Z" fill="#003CFF"/>
<path d="M17.173 12.41C16.8989 12.41 16.6249 12.1279 16.6249 11.8459C16.6249 6.86296 12.697 3.29031 7.3076 3.29031C7.03356 3.29031 6.75952 3.00826 6.75952 2.72621C6.75952 2.44416 7.03356 2.16211 7.3076 2.16211C13.2451 2.16211 17.7211 6.29886 17.7211 11.8459C17.7211 12.2219 17.5384 12.41 17.173 12.41Z" fill="#003CFF"/>
<path d="M7.30767 4.51282H4.74998C4.47594 4.51282 4.2019 4.23077 4.2019 3.94872V0.564103C4.2019 0.282051 4.47594 0 4.74998 0H7.30767C7.58171 0 7.85575 0.282051 7.85575 0.564103V3.94872C7.85575 4.32479 7.67306 4.51282 7.30767 4.51282ZM5.29806 3.38462H6.7596V1.12821H5.29806V3.38462Z" fill="#003CFF"/>
<path d="M5.48071 2.82059H3.65379C3.37975 2.82059 3.10571 2.63255 3.10571 2.25649C3.10571 1.88042 3.37975 1.69238 3.65379 1.69238H5.48071C5.75475 1.69238 6.02879 1.97443 6.02879 2.25649C6.02879 2.53854 5.75475 2.82059 5.48071 2.82059Z" fill="#003CFF"/>
<path d="M6.02877 16.2654C4.1105 16.2654 2.55762 14.6671 2.55762 12.6928C2.55762 10.7184 4.1105 9.12012 6.02877 9.12012C7.94704 9.12012 9.49992 10.7184 9.49992 12.6928C9.49992 14.6671 7.94704 16.2654 6.02877 16.2654ZM6.02877 10.2483C4.74992 10.2483 3.65377 11.3765 3.65377 12.6928C3.65377 14.009 4.74992 15.1372 6.02877 15.1372C7.30762 15.1372 8.40377 14.009 8.40377 12.6928C8.40377 11.3765 7.30762 10.2483 6.02877 10.2483Z" fill="#003CFF"/>
</g>
<defs>
<clipPath id="clip0_220_324">
<rect width="19" height="22" fill="white"/>
</clipPath>
</defs>
</svg>
