<svg width="15" height="22" viewBox="0 0 15 22" fill="none" xmlns="http://www.w3.org/2000/svg">
<g clip-path="url(#clip0_220_292)">
<path d="M12.7679 22H2.14286C0.982143 22 0 20.9789 0 19.7722V2.22785C0 1.0211 0.982143 0 2.14286 0H12.7679C13.9286 0 14.9107 1.0211 14.9107 2.22785V19.7722C15 20.9789 14.0179 22 12.7679 22ZM2.14286 1.11392C1.51786 1.11392 1.07143 1.57806 1.07143 2.22785V19.7722C1.07143 20.4219 1.51786 20.8861 2.14286 20.8861H12.7679C13.3929 20.8861 13.8393 20.4219 13.8393 19.7722V2.22785C13.8393 1.57806 13.3929 1.11392 12.7679 1.11392H2.14286Z" fill="#003CFF"/>
<path d="M9.82146 2.97025H5.17861C4.28575 2.97025 3.48218 2.04198 3.48218 0.835229C3.48218 0.556748 3.66075 0.371094 3.92861 0.371094C4.19646 0.371094 4.37503 0.556748 4.37503 0.835229C4.37503 1.48502 4.73218 2.04198 5.17861 2.04198H9.82146C10.2679 2.04198 10.625 1.48502 10.625 0.835229C10.625 0.556748 10.8036 0.371094 11.0715 0.371094C11.3393 0.371094 11.5179 0.556748 11.5179 0.835229C11.4286 2.04198 10.7143 2.97025 9.82146 2.97025Z" fill="#003CFF"/>
<path d="M10.1786 19.8648H4.82143C4.55357 19.8648 4.375 19.6791 4.375 19.4007C4.375 19.1222 4.55357 18.9365 4.82143 18.9365H10.1786C10.4464 18.9365 10.625 19.1222 10.625 19.4007C10.625 19.6791 10.3571 19.8648 10.1786 19.8648Z" fill="#003CFF"/>
</g>
<defs>
<clipPath id="clip0_220_292">
<rect width="15" height="22" fill="white"/>
</clipPath>
</defs>
</svg>
