<svg width="18" height="18" viewBox="0 0 18 18" fill="none" xmlns="http://www.w3.org/2000/svg">
<g clip-path="url(#clip0_220_305)">
<path d="M8.71277 0C8.90426 0 9.09575 0 9.38298 0C9.38298 0 9.47872 0 9.57447 0C10.1489 0.0957447 10.7234 0.287234 11.1064 0.670213C12.2553 1.62766 12.6383 2.87234 12.4468 4.30851C12.4468 4.40426 12.4468 4.40426 12.4468 4.5C14.6489 3.25532 17.234 4.5 17.8085 6.51064C18.0957 7.46809 18.0957 8.52128 17.617 9.38298C17.0426 10.6277 15.9894 11.2979 14.6489 11.4894C14.7447 11.5851 14.7447 11.5851 14.8404 11.6809C16.4681 13.3085 16.2766 15.8936 14.4574 17.234C13.5 18 12.3511 18.1915 11.2021 17.8085C10.3404 17.5213 9.67021 16.8511 9.19149 16.0851C9.19149 15.9894 9.09575 15.8936 9.09575 15.7979C8.04255 18 5.74468 18.5745 4.02128 17.5213C3.25532 17.0426 2.68085 16.3723 2.39362 15.5106C1.91489 13.9787 2.29787 12.6383 3.44681 11.4894H3.35106C1.7234 11.2021 0.765957 10.3404 0.191489 8.80851C0.0957447 8.61702 0.0957447 8.32979 0 8.1383C0 7.85106 0 7.65957 0 7.37234C0 7.2766 0 7.2766 0 7.18085C0.0957447 6.79787 0.191489 6.51064 0.287234 6.12766C1.14894 4.21277 3.44681 3.44681 5.3617 4.40426C5.45745 4.40426 5.45745 4.5 5.55319 4.5C5.55319 4.02128 5.45745 3.6383 5.55319 3.15957C5.74468 1.7234 6.51064 0.670213 7.85106 0.191489C8.1383 0.0957447 8.42553 0.0957447 8.71277 0ZM4.02128 10.5319C4.21277 10.5319 4.40426 10.5319 4.59575 10.5319C5.17021 10.5319 5.64894 10.2447 6.12766 10.0532C6.41489 9.95745 6.41489 9.95745 6.41489 9.67021C6.41489 9.57447 6.41489 9.57447 6.41489 9.47872C6.41489 9.38298 6.41489 9.28723 6.2234 9.28723C5.64894 9.09574 5.07447 8.90426 4.40426 8.71277C4.21277 8.61702 4.02128 8.52128 4.02128 8.23404C3.92553 7.85106 4.30851 7.56383 4.69149 7.65957C5.26596 7.85106 5.84043 8.04255 6.41489 8.23404C6.70213 8.32979 6.70213 8.32979 6.89362 8.04255L6.98936 7.94681C7.08511 7.85106 7.08511 7.75532 6.98936 7.65957C6.79787 7.2766 6.51064 6.89362 6.31915 6.41489C6.31915 6.31915 6.2234 6.31915 6.2234 6.2234C5.74468 6.03191 5.45745 5.64894 4.97872 5.45745C4.02128 4.88298 2.96809 4.97872 2.10638 5.64894C1.24468 6.31915 0.861702 7.18085 1.14894 8.32979C1.43617 9.67021 2.58511 10.5319 4.02128 10.5319ZM13.9787 10.5319C14.266 10.5319 14.6489 10.4362 14.9362 10.4362C15.9894 10.1489 16.7553 9.28723 16.9468 8.04255C17.1383 6.51064 15.9894 5.07447 14.4574 5.07447C13.3085 5.07447 12.3511 5.64894 11.6809 6.60638C11.4894 6.89362 11.3936 7.18085 11.2021 7.46809C11.0106 7.65957 11.0106 7.85106 11.2021 8.04255C11.2021 8.04255 11.2021 8.04255 11.2979 8.1383C11.3936 8.32979 11.4894 8.32979 11.5851 8.23404C12.1596 8.04255 12.8298 7.85106 13.4043 7.65957C13.7872 7.56383 14.1702 7.85106 14.0745 8.23404C14.0745 8.42553 13.883 8.61702 13.6915 8.71277C13.117 8.90426 12.6383 9.09574 12.0638 9.28723C11.6809 9.38298 11.6809 9.38298 11.6809 9.76596C11.6809 9.8617 11.6809 9.8617 11.6809 9.95745C11.6809 9.95745 11.6809 10.0532 11.7766 10.0532C12.4468 10.2447 13.2128 10.5319 13.9787 10.5319ZM7.94681 12.0638C7.94681 12.1596 7.85106 12.1596 7.85106 12.2553C7.46808 12.734 7.08511 13.3085 6.70213 13.7872C6.60638 13.9787 6.41489 14.0745 6.2234 14.0745C5.84043 13.9787 5.64894 13.5957 5.84043 13.2128C6.2234 12.734 6.51064 12.2553 6.89362 11.7766C7.08511 11.4894 7.08511 11.4894 6.89362 11.2021L6.79787 11.1064C6.79787 11.1064 6.70213 11.0106 6.60638 11.1064C6.31915 11.2021 6.12766 11.2979 5.84043 11.3936C5.17021 11.6809 4.5 11.9681 3.92553 12.5426C2.96809 13.5 2.7766 14.9362 3.54255 15.9894C4.30851 17.0426 5.74468 17.4255 6.89362 16.7553C7.56383 16.3723 7.94681 15.7021 8.23404 14.9362C8.52128 14.1702 8.42553 13.3085 8.42553 12.4468L8.32979 12.3511C8.23404 12.1596 8.1383 12.0638 7.94681 12.0638ZM10.1489 12.0638C9.95745 12.1596 9.76596 12.1596 9.67021 12.2553L9.57447 12.3511C9.57447 12.734 9.57447 13.117 9.57447 13.5C9.57447 14.3617 9.8617 15.1277 10.3404 15.7979C10.9149 16.6596 11.8723 17.1383 12.8298 16.8511C13.883 16.5638 14.5532 15.9894 14.8404 14.9362C15.1277 13.9787 14.8404 13.0213 14.0745 12.3511C13.3085 11.5851 12.3511 11.2021 11.3936 10.9149C11.2979 11.0106 11.2021 11.2021 11.1064 11.2979C11.0106 11.3936 11.0106 11.3936 11.1064 11.4894C11.3936 11.8723 11.6809 12.2553 11.9681 12.6383C12.0638 12.8298 12.2553 13.0213 12.3511 13.2128C12.5426 13.4043 12.4468 13.7872 12.2553 13.883C12.0638 14.0745 11.7766 13.9787 11.5851 13.7872C11.4894 13.6915 11.4894 13.6915 11.3936 13.5957C10.9149 13.117 10.5319 12.5426 10.1489 12.0638ZM8.52128 6.98936C8.52128 6.89362 8.52128 6.89362 8.52128 6.79787C8.52128 6.12766 8.52128 5.55319 8.52128 4.88298C8.52128 4.59574 8.71277 4.40426 9 4.30851C9.28723 4.30851 9.57447 4.5 9.57447 4.88298C9.57447 5.45745 9.57447 6.03192 9.57447 6.60638C9.57447 6.70213 9.57447 6.89362 9.57447 6.98936C9.67021 7.08511 9.8617 7.08511 9.95745 7.18085C10.0532 7.2766 10.1489 7.18085 10.1489 7.08511C10.5319 6.51064 10.8191 5.84043 11.1064 5.17021C11.2979 4.69149 11.4894 4.11702 11.3936 3.54255C11.3936 2.7766 11.1064 2.10638 10.5319 1.62766C9.28723 0.574468 7.2766 1.14894 6.70213 2.68085C6.41489 3.54255 6.60638 4.40426 6.89362 5.17021C7.08511 5.45745 7.18085 5.74468 7.37234 6.12766C7.56383 6.51064 7.75532 6.89362 7.94681 7.2766C8.1383 7.18085 8.32979 7.08511 8.52128 6.98936ZM9 11.2021C9.8617 11.2021 10.5319 10.5319 10.6277 9.67021C10.6277 8.80851 9.95745 8.1383 9.09575 8.04255C8.23404 8.04255 7.46809 8.71277 7.46809 9.57447C7.46809 10.4362 8.1383 11.2021 9 11.2021Z" fill="#003CFF"/>
</g>
<defs>
<clipPath id="clip0_220_305">
<rect width="18" height="18" fill="white"/>
</clipPath>
</defs>
</svg>
