<svg width="19" height="16" viewBox="0 0 19 16" fill="none" xmlns="http://www.w3.org/2000/svg">
<g clip-path="url(#clip0_220_333)">
<path d="M0.561576 16C0.280788 16 0 15.7091 0 15.4182V0.581818C0 0.290909 0.280788 0 0.561576 0C0.842365 0 1.12315 0.290909 1.12315 0.581818V15.4182C1.12315 15.7091 0.842365 16 0.561576 16Z" fill="#003CFF"/>
<path d="M18.4385 16C18.1577 16 17.877 15.7091 17.877 15.4182V0.581818C17.877 0.290909 18.1577 0 18.4385 0C18.7193 0 19.0001 0.290909 19.0001 0.581818V15.4182C19.0001 15.7091 18.7193 16 18.4385 16Z" fill="#003CFF"/>
<path d="M16.6602 10.8606C16.3794 10.8606 16.0986 10.5697 16.0986 10.2788V0.581818C16.0986 0.290909 16.3794 0 16.6602 0C16.941 0 17.2218 0.290909 17.2218 0.581818V10.2788C17.2218 10.5697 16.941 10.8606 16.6602 10.8606Z" fill="#003CFF"/>
<path d="M14.8819 10.8606C14.6011 10.8606 14.3203 10.5697 14.3203 10.2788V0.581818C14.3203 0.290909 14.6011 0 14.8819 0C15.1627 0 15.4435 0.290909 15.4435 0.581818V10.2788C15.4435 10.5697 15.1627 10.8606 14.8819 10.8606Z" fill="#003CFF"/>
<path d="M13.1036 10.8606C12.8228 10.8606 12.542 10.5697 12.542 10.2788V0.581818C12.542 0.290909 12.7292 0 13.1036 0C13.478 0 13.6651 0.290909 13.6651 0.581818V10.2788C13.6651 10.5697 13.3844 10.8606 13.1036 10.8606Z" fill="#003CFF"/>
<path d="M11.325 10.8606C11.0442 10.8606 10.7634 10.5697 10.7634 10.2788V0.581818C10.7634 0.290909 11.0442 0 11.325 0C11.6058 0 11.8866 0.290909 11.8866 0.581818V10.2788C11.8866 10.5697 11.6058 10.8606 11.325 10.8606Z" fill="#003CFF"/>
<path d="M9.45318 10.8606C9.17239 10.8606 8.8916 10.5697 8.8916 10.2788V0.581818C8.8916 0.290909 9.17239 0 9.45318 0C9.73397 0 10.0148 0.290909 10.0148 0.581818V10.2788C10.0148 10.5697 9.82756 10.8606 9.45318 10.8606Z" fill="#003CFF"/>
<path d="M7.67486 10.8606C7.39407 10.8606 7.11328 10.5697 7.11328 10.2788V0.581818C7.11328 0.290909 7.39407 0 7.67486 0C7.95565 0 8.23643 0.290909 8.23643 0.581818V10.2788C8.23643 10.5697 8.04924 10.8606 7.67486 10.8606Z" fill="#003CFF"/>
<path d="M5.89654 14.3515C5.61575 14.3515 5.33496 14.0606 5.33496 13.7697V0.581818C5.33496 0.290909 5.61575 0 5.89654 0C6.17733 0 6.45811 0.290909 6.45811 0.581818V13.7697C6.45811 14.0606 6.27092 14.3515 5.89654 14.3515Z" fill="#003CFF"/>
<path d="M4.11822 10.8606C3.83743 10.8606 3.55664 10.5697 3.55664 10.2788V0.581818C3.55664 0.290909 3.83743 0 4.11822 0C4.39901 0 4.67979 0.290909 4.67979 0.581818V10.2788C4.67979 10.5697 4.4926 10.8606 4.11822 10.8606Z" fill="#003CFF"/>
<path d="M2.3399 10.8606C2.05911 10.8606 1.77832 10.5697 1.77832 10.2788V0.581818C1.77832 0.290909 2.05911 0 2.3399 0C2.62068 0 2.90147 0.290909 2.90147 0.581818V10.2788C2.90147 10.5697 2.62068 10.8606 2.3399 10.8606Z" fill="#003CFF"/>
</g>
<defs>
<clipPath id="clip0_220_333">
<rect width="19" height="16" fill="white"/>
</clipPath>
</defs>
</svg>
