<svg width="23" height="22" viewBox="0 0 23 22" fill="none" xmlns="http://www.w3.org/2000/svg">
<g clip-path="url(#clip0_220_296)">
<path d="M22.7087 4.5C22.6117 4.5 22.5147 4.5 22.4176 4.5H21.7383V5.4H22.3206C22.4176 5.4 22.6117 5.4 22.7087 5.4C22.9028 5.3 22.9999 5.2 22.9999 5C22.9999 4.7 22.9028 4.6 22.7087 4.5Z" fill="#003CFF"/>
<path d="M6.308 5.00023C6.308 5.20023 6.21095 5.40023 5.91982 5.40023C5.82277 5.40023 5.72572 5.40023 5.62868 5.40023H4.65821C4.17298 5.40023 3.78479 5.40023 3.29956 5.40023C3.00842 5.40023 2.91138 5.20023 2.91138 5.00023C2.91138 4.70023 3.00842 4.60023 3.29956 4.60023C4.17298 4.60023 5.0464 4.60023 5.91982 4.60023C6.11391 4.50023 6.308 4.70023 6.308 5.00023Z" fill="#003CFF"/>
<path d="M6.30812 3.2002C6.30812 3.4002 6.21108 3.6002 6.01698 3.6002C5.91994 3.6002 5.82289 3.6002 5.72584 3.6002H4.65833C4.1731 3.6002 3.78492 3.6002 3.29968 3.6002C3.20264 3.6002 3.00854 3.4002 3.00854 3.3002C3.00854 3.2002 3.00855 3.0002 3.10559 2.9002C3.20264 2.8002 3.39673 2.8002 3.59082 2.7002C4.27015 2.7002 4.94947 2.7002 5.6288 2.7002C5.72584 2.7002 5.91994 2.7002 6.01698 2.7002C6.21108 2.8002 6.30812 3.0002 6.30812 3.2002Z" fill="#003CFF"/>
<path d="M20.6709 4.49987C20.5738 4.19986 20.5738 3.99987 20.4768 3.79987C20.1857 3.09986 19.6034 2.79987 18.827 2.79987H17.3713C17.2743 2.79987 17.1772 2.79987 17.0802 2.59986C16.789 1.79987 16.3038 1.39987 15.5274 1.19987C13.5865 0.899865 11.7426 0.499865 9.80169 0.199865C8.63713 -0.000134885 7.37553 -0.000134885 6.11392 0.0998651C4.94937 0.199865 3.88186 0.299865 2.7173 0.499865C1.35865 0.799865 0.194093 2.09986 0 3.59986C0 3.59986 0 3.69987 0 3.79987V6.19986C0.0970464 6.69986 0.194093 7.29987 0.485232 7.79987C0.873418 8.49987 1.35865 8.99987 2.03797 9.29987C2.23207 9.39987 2.23207 9.49987 2.23207 9.69987C2.13502 10.7999 2.03797 11.7999 2.03797 12.8999C2.03797 14.0999 2.03797 15.2999 2.03797 16.3999C2.03797 16.5999 2.03797 16.7999 1.94093 16.9999C1.74684 17.7999 1.4557 18.4999 1.2616 19.1999C1.2616 19.2999 1.2616 19.3999 1.2616 19.4999C1.2616 20.0999 1.2616 20.5999 1.2616 21.1999C1.2616 21.7999 1.55274 22.0999 2.13502 22.0999C4.27004 22.0999 6.30802 22.0999 8.44304 22.0999C8.92827 22.0999 9.31646 21.6999 9.31646 21.1999C9.31646 20.5999 9.31646 19.9999 9.31646 19.4999C9.31646 19.3999 9.21941 19.1999 9.12236 19.0999C8.44304 18.2999 7.66667 17.4999 6.8903 16.6999C6.79325 16.5999 6.6962 16.4999 6.6962 16.3999C6.6962 15.4999 6.6962 14.5999 6.6962 13.6999H7.27848C7.76371 13.6999 7.86076 13.5999 7.95781 13.0999C8.1519 12.0999 8.34599 11.1999 8.54008 10.1999C8.54008 10.0999 8.54008 9.99987 8.63713 9.99987C9.12236 9.89987 9.70464 9.89987 10.1899 9.79987C11.9367 9.49987 13.7806 9.19987 15.5274 8.89987C16.3038 8.79986 16.8861 8.29986 17.0802 7.49987C17.0802 7.29987 17.1772 7.29987 17.2743 7.29987C17.8565 7.29987 18.4388 7.29987 19.0211 7.29987C19.8945 7.19987 20.4768 6.59986 20.4768 5.69986V5.59986H22.0295V4.49987H20.6709ZM8.44304 21.0999H2.13502V19.7999H8.44304V21.0999ZM7.76371 18.8999H2.23207C2.42616 18.2999 2.62025 17.7999 2.7173 17.1999C2.7173 17.0999 2.81435 17.0999 2.91139 17.0999C3.88186 17.0999 4.85232 17.0999 5.91983 17.0999C6.01688 17.0999 6.11392 17.0999 6.11392 17.1999C6.6962 17.6999 7.27848 18.2999 7.76371 18.8999ZM3.20253 9.59987C4.07595 9.69987 4.94937 9.79986 5.82278 9.89987V16.1999H2.91139C2.91139 13.8999 3.00844 11.6999 3.20253 9.59987ZM7.27848 12.6999H6.79325V9.99987H7.76371C7.56962 10.8999 7.37553 11.7999 7.27848 12.6999ZM13.0042 7.89987V8.19987C12.9072 8.19987 12.9072 8.19987 12.9072 8.19987C11.7426 8.39987 10.5781 8.69987 9.31646 8.79987C7.27848 9.09987 5.14346 8.99987 3.00844 8.49987C1.74684 8.19987 0.873418 7.19987 0.873418 5.79987V4.19986C0.873418 2.79986 1.64979 1.69987 3.00844 1.39987C3.88186 1.19986 4.75527 1.09987 5.62869 0.999865C7.08439 0.899865 8.54008 0.899865 9.99578 1.09987C10.9662 1.19987 11.8397 1.49987 12.7131 1.59987C13.0042 1.59987 13.0042 1.69987 13.0042 1.99987C13.0042 3.99987 13.0042 5.99987 13.0042 7.89987ZM16.4008 6.69986C16.4008 7.19986 16.1097 7.59987 15.7215 7.79987C15.1392 7.99987 14.557 7.99987 13.8776 8.19987V1.79987C13.9747 1.79987 13.9747 1.79987 14.0717 1.79987C14.557 1.89987 15.0422 1.99986 15.5274 2.09986C16.0127 2.19986 16.4008 2.59986 16.4008 3.19987C16.4008 4.39987 16.4008 5.59986 16.4008 6.69986ZM19.7975 5.29987C19.7975 5.89987 19.4093 6.29987 18.827 6.29987H17.4684C17.3713 6.29987 17.3713 6.29987 17.2743 6.29987C17.2743 5.39987 17.2743 4.49987 17.2743 3.59986C17.8565 3.59986 18.4388 3.59986 19.0211 3.59986C19.5063 3.59986 19.7975 3.99987 19.7975 4.49987V5.29987Z" fill="#003CFF"/>
<path d="M6.308 5.00023C6.308 5.20023 6.21095 5.40023 5.91982 5.40023C5.82277 5.40023 5.72572 5.40023 5.62868 5.40023H4.65821C4.17298 5.40023 3.78479 5.40023 3.29956 5.40023C3.00842 5.40023 2.91138 5.20023 2.91138 5.00023C2.91138 4.70023 3.00842 4.60023 3.29956 4.60023C4.17298 4.60023 5.0464 4.60023 5.91982 4.60023C6.11391 4.50023 6.308 4.70023 6.308 5.00023Z" fill="#003CFF"/>
<path d="M3.00854 3.3002C3.00854 3.2002 3.00855 3.0002 3.10559 2.9002C3.20264 2.8002 3.39673 2.8002 3.59082 2.7002C4.27015 2.7002 4.94947 2.7002 5.6288 2.7002C5.72584 2.7002 5.91994 2.7002 6.01698 2.7002C6.21108 2.7002 6.30812 2.9002 6.30812 3.1002C6.30812 3.3002 6.21108 3.5002 6.01698 3.5002C5.91994 3.5002 5.82289 3.5002 5.72584 3.5002H4.65833C4.1731 3.5002 3.78492 3.5002 3.29968 3.5002C3.20264 3.6002 3.00854 3.5002 3.00854 3.3002Z" fill="#003CFF"/>
<path d="M6.30812 3.2002C6.30812 3.4002 6.21108 3.6002 6.01698 3.6002C5.91994 3.6002 5.82289 3.6002 5.72584 3.6002H4.65833C4.1731 3.6002 3.78492 3.6002 3.29968 3.6002C3.20264 3.6002 3.00854 3.4002 3.00854 3.3002C3.00854 3.2002 3.00855 3.0002 3.10559 2.9002C3.20264 2.8002 3.39673 2.8002 3.59082 2.7002C4.27015 2.7002 4.94947 2.7002 5.6288 2.7002C5.72584 2.7002 5.91994 2.7002 6.01698 2.7002C6.21108 2.8002 6.30812 3.0002 6.30812 3.2002Z" fill="#003CFF"/>
<path d="M6.308 5.00023C6.308 5.20023 6.21095 5.40023 5.91982 5.40023C5.82277 5.40023 5.72572 5.40023 5.62868 5.40023H4.65821C4.17298 5.40023 3.78479 5.40023 3.29956 5.40023C3.00842 5.40023 2.91138 5.20023 2.91138 5.00023C2.91138 4.70023 3.00842 4.60023 3.29956 4.60023C4.17298 4.60023 5.0464 4.60023 5.91982 4.60023C6.11391 4.50023 6.308 4.70023 6.308 5.00023Z" fill="#003CFF"/>
</g>
<defs>
<clipPath id="clip0_220_296">
<rect width="23" height="22" fill="white"/>
</clipPath>
</defs>
</svg>
