<svg width="21" height="20" viewBox="0 0 21 20" fill="none" xmlns="http://www.w3.org/2000/svg">
<g clip-path="url(#clip0_220_307)">
<path d="M8.33333 3.84937H1.91667C0.833333 3.84937 0 2.92887 0 1.92469C0 0.83682 0.833333 0 1.91667 0H8.33333C9.41667 0 10.25 0.83682 10.25 1.92469C10.25 2.92887 9.41667 3.84937 8.33333 3.84937ZM1.91667 1.00418C1.41667 1.00418 1 1.42259 1 1.92469C1 2.42678 1.41667 2.84519 1.91667 2.84519H8.33333C8.83333 2.84519 9.25 2.42678 9.25 1.92469C9.25 1.42259 8.83333 1.00418 8.33333 1.00418H1.91667Z" fill="#003CFF"/>
<path d="M1.25 2.84473V12.7192H9V2.84473H1.25ZM2.25 11.715V3.84891H8V11.715H2.25Z" fill="#003CFF"/>
<path d="M18.2499 8.53541V11.9664C18.2499 12.2174 17.9999 12.4685 17.7499 12.4685C17.4999 12.4685 17.2499 12.2174 17.2499 11.9664V8.53541C17.2499 7.94963 16.8333 7.44754 16.3333 7.44754H9.16659C9.08325 7.44754 8.99992 7.44754 8.91658 7.36386C8.74992 7.28018 8.58325 7.11281 8.58325 6.94545C8.58325 6.77809 8.66658 6.52704 8.91658 6.52704C8.99992 6.52704 9.08325 6.44336 9.16659 6.44336H16.3333C17.4166 6.35968 18.2499 7.36386 18.2499 8.53541Z" fill="#003CFF"/>
<path d="M20.5 17.6572C20.3333 17.6572 20.1667 17.5736 20.0833 17.4062L18.5 14.31C18.25 13.8916 18.1667 13.6405 18 13.3058C17.75 12.72 17.75 12.72 17.5 12.72H1.91667C1.41667 12.72 1 13.3058 1 14.0589V17.1552C1 17.4062 0.75 17.6572 0.5 17.6572C0.25 17.6572 0 17.4062 0 17.1552V14.0589C0 12.8037 0.833333 11.7158 1.91667 11.7158H17.5C18.3333 11.7158 18.5833 12.2179 18.9167 12.8874C19 13.1384 19.1667 13.4731 19.3333 13.8079L20.9167 16.9041C21.0833 17.1552 20.9167 17.4899 20.6667 17.5736C20.6667 17.6572 20.5833 17.6572 20.5 17.6572Z" fill="#003CFF"/>
<path d="M3.91659 19.9999C2.33325 19.9999 1.08325 18.7447 1.08325 17.1548C1.08325 15.5648 2.33325 14.3096 3.91659 14.3096C5.49992 14.3096 6.74992 15.5648 6.74992 17.1548C6.74992 18.7447 5.41659 19.9999 3.91659 19.9999ZM3.91659 15.1464C2.83325 15.1464 1.91659 16.0669 1.91659 17.1548C1.91659 18.2426 2.83325 19.1631 3.91659 19.1631C4.99992 19.1631 5.91659 18.2426 5.91659 17.1548C5.91659 16.0669 4.99992 15.1464 3.91659 15.1464Z" fill="#003CFF"/>
<path d="M9.58333 19.9999C8 19.9999 6.75 18.7447 6.75 17.1548C6.75 15.5648 8 14.3096 9.58333 14.3096C11.1667 14.3096 12.4167 15.5648 12.4167 17.1548C12.4167 18.7447 11.1667 19.9999 9.58333 19.9999ZM9.58333 15.1464C8.5 15.1464 7.58333 16.0669 7.58333 17.1548C7.58333 18.2426 8.5 19.1631 9.58333 19.1631C10.6667 19.1631 11.5833 18.2426 11.5833 17.1548C11.5833 16.0669 10.75 15.1464 9.58333 15.1464Z" fill="#003CFF"/>
<path d="M15.3333 19.9999C13.75 19.9999 12.5 18.7447 12.5 17.1548C12.5 15.5648 13.75 14.3096 15.3333 14.3096C16.9167 14.3096 18.1667 15.5648 18.1667 17.1548C18.1667 18.7447 16.9167 19.9999 15.3333 19.9999ZM15.3333 15.1464C14.25 15.1464 13.3333 16.0669 13.3333 17.1548C13.3333 18.2426 14.25 19.1631 15.3333 19.1631C16.4167 19.1631 17.3333 18.2426 17.3333 17.1548C17.3333 16.0669 16.4167 15.1464 15.3333 15.1464Z" fill="#003CFF"/>
<path d="M2.83333 17.6565H0.5C0.25 17.6565 0 17.4055 0 17.1544C0 16.9034 0.25 16.6523 0.5 16.6523H2.83333C3.08333 16.6523 3.33333 16.9034 3.33333 17.1544C3.33333 17.4055 3.08333 17.6565 2.83333 17.6565Z" fill="#003CFF"/>
<path d="M20.4999 17.6565H16.5833C16.3333 17.6565 16.0833 17.4055 16.0833 17.1544C16.0833 16.9034 16.3333 16.6523 16.5833 16.6523H20.4999C20.7499 16.6523 20.9999 16.9034 20.9999 17.1544C20.9999 17.4055 20.8333 17.6565 20.4999 17.6565Z" fill="#003CFF"/>
<path d="M8.24992 17.6565H5.08325C4.83325 17.6565 4.58325 17.4055 4.58325 17.1544C4.58325 16.9034 4.83325 16.6523 5.08325 16.6523H8.24992C8.49992 16.6523 8.74992 16.9034 8.74992 17.1544C8.74992 17.4055 8.49992 17.6565 8.24992 17.6565Z" fill="#003CFF"/>
<path d="M14.0834 17.6565H10.9167C10.6667 17.6565 10.4167 17.4055 10.4167 17.1544C10.4167 16.9034 10.6667 16.6523 10.9167 16.6523H14.0834C14.3334 16.6523 14.5834 16.9034 14.5834 17.1544C14.5834 17.4055 14.3334 17.6565 14.0834 17.6565Z" fill="#003CFF"/>
<path d="M16.5001 0.836751C16.2501 0.418341 15.8334 0.250977 15.4167 0.250977H13.0001C12.5834 0.250977 12.1667 0.502023 11.9167 0.836751C11.6667 1.25516 11.6667 1.67357 11.9167 2.09198L12.7501 3.51458L13.0001 4.01667L13.1667 4.18403C13.2501 4.3514 13.3334 4.43508 13.5001 4.51876V4.26771C13.5001 4.18403 13.5834 4.10035 13.6667 4.10035H14.8334C14.9167 4.10035 15.0001 4.18403 15.0001 4.26771V4.51876C15.0834 4.43508 15.2501 4.26771 15.3334 4.18403L15.5001 3.93298L15.7501 3.43089L16.5834 2.0083C16.7501 1.67357 16.7501 1.25516 16.5001 0.836751ZM14.4167 3.68194C14.3334 3.76562 14.2501 3.76562 14.1667 3.76562C14.1667 3.76562 14.0001 3.76562 13.9167 3.68194L13.8334 3.59826L13.5001 3.09617L12.6667 1.58989C12.5834 1.50621 12.6667 1.33884 12.6667 1.33884C12.6667 1.33884 12.7501 1.25516 12.9167 1.25516H15.3334C15.4167 1.25516 15.5001 1.33884 15.5834 1.33884C15.5834 1.33884 15.6667 1.50621 15.5834 1.58989L14.7501 3.09617L14.4167 3.59826V3.68194Z" fill="#003CFF"/>
<path d="M15.4167 3.93306C15.3333 3.68201 15.0833 3.51465 14.8333 3.51465H13.6667C13.4167 3.51465 13.1667 3.68201 13.0833 3.93306C13 4.01674 13 4.10042 13 4.26779V6.19247C13 6.27615 13 6.27615 13 6.35984C13.0833 6.69456 13.3333 6.86193 13.6667 6.86193H14.8333C15.1667 6.86193 15.4167 6.61088 15.5 6.35984C15.5 6.27615 15.5 6.27615 15.5 6.19247V4.26779C15.5 4.1841 15.5 4.01674 15.4167 3.93306ZM13.6667 6.35984C13.5833 6.35984 13.5 6.27615 13.5 6.19247V4.26779C13.5 4.1841 13.5833 4.10042 13.6667 4.10042H14.8333C14.9167 4.10042 15 4.1841 15 4.26779V6.19247C15 6.27615 14.9167 6.35984 14.8333 6.35984H13.6667Z" fill="white"/>
<path d="M15.75 3.51509C15.5 3.26404 15.25 3.09668 14.8333 3.09668H13.6667C13.3333 3.09668 13 3.26404 12.8333 3.51509C12.6667 3.76614 12.5 4.01718 12.5 4.26823V6.19291C12.5 6.2766 12.5 6.2766 12.5 6.36028C12.5833 6.94605 13.0833 7.36446 13.6667 7.36446H14.8333C15.4167 7.36446 15.9167 6.94605 16 6.36028C16 6.2766 16 6.2766 16 6.19291V4.26823C16 3.9335 15.9167 3.68245 15.75 3.51509ZM13.4167 6.19291V4.26823C13.4167 4.18455 13.5 4.10086 13.5833 4.10086H14.75C14.9167 4.10086 15 4.18455 15 4.26823V6.19291C15 6.2766 14.9167 6.36028 14.8333 6.36028H13.6667C13.5 6.36028 13.4167 6.2766 13.4167 6.19291Z" fill="#003CFF"/>
<path d="M5.58341 5.77441H4.58341C4.16675 5.77441 3.91675 6.10914 3.91675 6.44387V7.36437C3.91675 7.78278 4.25008 8.03383 4.58341 8.03383H5.58341C6.00008 8.03383 6.25008 7.6991 6.25008 7.36437V6.44387C6.33341 6.02546 6.00008 5.77441 5.58341 5.77441ZM5.83341 7.36437C5.83341 7.44805 5.75008 7.53174 5.58341 7.53174H4.58341C4.50008 7.53174 4.41675 7.44805 4.41675 7.36437V6.44387C4.41675 6.36019 4.50008 6.27651 4.58341 6.27651H5.58341C5.75008 6.27651 5.83341 6.36019 5.83341 6.44387V7.36437Z" fill="white"/>
<path d="M5.58341 5.27148H4.58341C3.91675 5.27148 3.41675 5.77358 3.41675 6.44303V7.36353C3.41675 8.03299 3.91675 8.53508 4.58341 8.53508H5.58341C6.25008 8.53508 6.75008 8.03299 6.75008 7.36353V6.44303C6.83342 5.77358 6.25008 5.27148 5.58341 5.27148ZM5.83341 7.36353C5.83341 7.44722 5.75008 7.5309 5.58341 7.5309H4.58341C4.50008 7.5309 4.41675 7.44722 4.41675 7.36353V6.44303C4.41675 6.35935 4.50008 6.27567 4.58341 6.27567H5.58341C5.75008 6.27567 5.83341 6.35935 5.83341 6.44303V7.36353Z" fill="#003CFF"/>
</g>
<defs>
<clipPath id="clip0_220_307">
<rect width="21" height="20" fill="white"/>
</clipPath>
</defs>
</svg>
