<svg width="25" height="19" viewBox="0 0 25 19" fill="none" xmlns="http://www.w3.org/2000/svg">
<path d="M2.84475 6.45046C2.84475 6.08637 2.84475 5.73212 2.84475 5.3877C2.85488 4.36431 3.19939 3.44915 3.85801 2.66193C4.59769 1.78613 5.54002 1.2646 6.67487 1.06779C6.89779 1.02843 7.13084 1.00875 7.35376 1.00875C10.7887 1.00875 14.2237 0.989066 17.6586 1.00875C19.1988 1.01859 20.4248 1.67789 21.3266 2.88825C21.9143 3.68532 22.1778 4.59063 22.1575 5.56483C22.1474 5.8502 22.1575 6.13557 22.1575 6.39142C22.4311 6.52918 22.7148 6.62759 22.9478 6.79487C23.6875 7.30657 24.0624 8.02492 23.9915 8.91055C23.9206 9.80602 23.4038 10.426 22.5932 10.8196C22.4919 10.8688 22.4311 10.918 22.3905 11.0262C22.046 11.9119 21.6914 12.7975 21.3469 13.6831C21.2253 13.9882 21.0733 14.2932 20.82 14.5195C20.7693 14.5687 20.7896 14.6081 20.8099 14.6573C21.0632 15.1493 21.3165 15.6413 21.5597 16.1334C21.9954 16.9895 21.4178 17.9538 20.4451 17.9932C19.9081 18.0129 19.4825 17.7767 19.2292 17.3044C18.8948 16.6746 18.5807 16.0448 18.2666 15.4052C18.226 15.3265 18.1855 15.3068 18.0943 15.3068C16.4022 15.3068 14.71 15.3068 13.0179 15.3068C11.5791 15.3068 10.1402 15.3068 8.70139 15.3068C8.10357 15.3068 7.50575 15.3068 6.89779 15.3068C6.81673 15.3068 6.7762 15.3363 6.73567 15.4052C6.42156 16.035 6.10745 16.6647 5.7832 17.2945C5.33737 18.1506 4.11132 18.249 3.5439 17.4717C3.23992 17.0584 3.20952 16.6155 3.43244 16.153C3.68576 15.6512 3.93907 15.1493 4.19239 14.6475C4.21265 14.618 4.21265 14.5491 4.19239 14.5392C3.88841 14.2539 3.73642 13.8898 3.59456 13.5158C3.25005 12.6597 2.91568 11.7938 2.57117 10.9377C2.5509 10.8983 2.49011 10.8589 2.43944 10.8393C1.80109 10.544 1.33499 10.0815 1.11207 9.43209C0.797963 8.51693 1.16274 7.44434 1.97335 6.85392C2.23679 6.66695 2.52051 6.52918 2.84475 6.45046ZM21.2253 6.38158C21.2253 6.02733 21.2354 5.66323 21.2253 5.29914C21.1949 4.42335 20.8707 3.66564 20.2526 3.02602C19.5129 2.26831 18.601 1.91406 17.5269 1.91406C14.173 1.91406 10.809 1.91406 7.45508 1.91406C7.17137 1.91406 6.87753 1.93374 6.59381 2.00262C5.38803 2.28799 4.53689 2.98666 4.0404 4.08878C3.70602 4.83664 3.76682 5.61403 3.76682 6.39142C3.78708 6.40126 3.79721 6.4111 3.80735 6.4111C3.82761 6.42094 3.85801 6.42094 3.87827 6.42094C4.66862 6.57839 5.23604 7.0212 5.59068 7.71003C5.73254 7.98556 5.844 8.26109 5.97572 8.54646C6.12771 8.88103 6.2797 9.20576 6.44182 9.55017C10.4746 8.32997 14.5175 8.28077 18.5402 9.55017C18.8137 8.94991 19.0772 8.37917 19.3406 7.79859C19.5939 7.25737 19.979 6.85392 20.5261 6.60791C20.7592 6.51934 21.0024 6.4603 21.2253 6.38158ZM5.99599 10.7409C5.98586 10.7212 5.97572 10.7113 5.96559 10.7015C5.72241 10.18 5.47923 9.66825 5.23604 9.14672C5.11445 8.88103 4.96246 8.62518 4.87127 8.33981C4.64835 7.64114 3.9492 7.18849 3.20952 7.29673C2.52051 7.39513 1.96321 7.96587 1.92268 8.62518C1.87202 9.33368 2.29759 9.94379 3.00687 10.1308C3.19939 10.18 3.29058 10.2685 3.35138 10.4456C3.75668 11.4986 4.18225 12.5515 4.61796 13.5946C4.67875 13.7323 4.76994 13.8799 4.89154 13.9685C5.07392 14.0964 5.28671 14.2047 5.48936 14.2932C5.91493 14.4802 6.38103 14.431 6.82686 14.4408C9.99837 14.4507 13.1699 14.4507 16.3414 14.4507C16.7366 14.4507 17.1419 14.4507 17.537 14.4507C17.9322 14.4507 18.3274 14.4507 18.7225 14.4408C19.0468 14.4408 19.3609 14.3621 19.6649 14.244C20.0499 14.0964 20.3235 13.8406 20.4552 13.4469C20.5667 13.1321 20.7085 12.8172 20.8301 12.5023C21.124 11.7643 21.4178 11.0262 21.7218 10.2784C21.7421 10.239 21.8029 10.1996 21.8434 10.1898C22.6945 9.99299 23.2012 9.28448 23.0593 8.48741C22.9478 7.88715 22.4311 7.39513 21.8029 7.30657C21.1544 7.21801 20.5261 7.52306 20.2526 8.0938C19.9993 8.61534 19.7561 9.15656 19.5129 9.68794C19.3508 10.0422 19.1785 10.3964 19.0164 10.7605C18.9759 10.7409 18.9455 10.7212 18.9151 10.7015C18.7732 10.6228 18.6313 10.5145 18.4692 10.4752C17.689 10.2685 16.9088 10.0717 16.1185 9.89458C15.1559 9.68794 14.173 9.57969 13.1901 9.54033C12.1971 9.50097 11.2143 9.56001 10.2314 9.68794C9.36001 9.79618 8.48861 9.95363 7.63747 10.18C7.08018 10.3276 6.50262 10.4161 6.02639 10.7605C6.01625 10.7409 6.00612 10.7409 5.99599 10.7409ZM5.03339 15.0804C5.03339 15.0804 5.02326 15.0804 5.02326 15.0903C4.75981 15.5921 4.5065 16.094 4.24305 16.5959C4.19239 16.7041 4.20252 16.8222 4.26331 16.9304C4.40517 17.1666 4.80034 17.1863 4.95233 16.8812C5.20565 16.3794 5.46909 15.8775 5.73254 15.3757C5.75281 15.3461 5.76294 15.3166 5.77307 15.2871C5.51976 15.2182 5.27657 15.1493 5.03339 15.0804ZM19.2089 15.2871C19.5028 15.848 19.7865 16.3991 20.0803 16.9403C20.1715 17.1076 20.3944 17.1568 20.5768 17.0584C20.7592 16.9698 20.8301 16.7631 20.7491 16.5762C20.6883 16.4483 20.6275 16.3302 20.5565 16.2022C20.364 15.8185 20.1614 15.4347 19.9689 15.0706C19.7257 15.1493 19.4825 15.2182 19.2089 15.2871Z" fill="#003CFF" stroke="#003CFF" stroke-width="0.3"/>
</svg>
