<svg width="22" height="21" viewBox="0 0 22 21" fill="none" xmlns="http://www.w3.org/2000/svg">
<g clip-path="url(#clip0_220_345)">
<path d="M21.8962 15.3382L14.632 5.86765C14.5283 5.76471 14.5283 5.66177 14.3207 5.66177C14.3207 5.66177 14.3207 5.66177 14.2169 5.66177C14.1132 5.66177 14.0094 5.66177 13.9056 5.66177C13.9056 5.66177 13.9056 5.66177 13.8018 5.66177C13.6981 5.66177 13.5943 5.76471 13.4905 5.86765L8.8207 12.0441L8.09429 10.7059H8.92448C9.13202 10.7059 9.33957 10.6029 9.44335 10.3971C9.54712 10.1912 9.54712 9.98529 9.44335 9.77941L7.88674 7H8.50938C8.71693 7 8.92448 6.89706 9.02825 6.69118C9.13202 6.48529 9.13202 6.27941 9.02825 6.07353L5.7075 0.308824C5.60372 0.102941 5.39618 0 5.18863 0C4.98108 0 4.77353 0.102941 4.66976 0.308824L1.34901 6.07353C1.24523 6.27941 1.24523 6.48529 1.34901 6.69118C1.45278 6.89706 1.66033 7 1.86787 7H2.49052L0.726364 9.88235C0.622591 10.0882 0.622591 10.2941 0.726364 10.5C0.830138 10.7059 1.03769 10.8088 1.24523 10.8088H2.07542L-5.06714e-05 14.3088C-0.103824 14.5147 -0.103824 14.7206 -5.06714e-05 14.9265C0.103723 15.1324 0.31127 15.2353 0.518817 15.2353H6.43391L6.33014 15.3382C6.22636 15.4412 6.22636 15.5441 6.22636 15.75V20.3824C6.22636 20.6912 6.53768 21 6.84901 21H14.1132H21.3773C21.6886 21 22 20.6912 22 20.3824V15.75C22 15.6471 22 15.4412 21.8962 15.3382ZM7.57542 15.9559L8.09429 15.2353L9.65089 13.2794L13.5943 8.13235V19.7647H7.57542V15.9559ZM1.66033 14L3.7358 10.5C3.83957 10.2941 3.83957 10.0882 3.7358 9.88235C3.63202 9.67647 3.42448 9.57353 3.21693 9.57353H2.38674L4.04712 6.69118C4.15089 6.48529 4.15089 6.27941 4.04712 6.07353C3.94335 5.86765 3.7358 5.76471 3.52825 5.76471H2.90561L5.18863 1.85294L7.47165 5.76471H6.84901C6.64146 5.76471 6.43391 5.86765 6.33014 6.07353C6.22636 6.27941 6.22636 6.48529 6.33014 6.69118L7.99051 9.57353H7.16033C6.95278 9.57353 6.74523 9.67647 6.64146 9.88235C6.53768 10.0882 6.53768 10.2941 6.64146 10.5L8.19806 13.1765L7.57542 14H1.66033ZM20.7547 19.7647H14.7358V8.13235L20.7547 15.9559V19.7647Z" fill="#003CFF"/>
</g>
<defs>
<clipPath id="clip0_220_345">
<rect width="22" height="21" fill="white"/>
</clipPath>
</defs>
</svg>
