<svg width="23" height="24" viewBox="0 0 23 24" fill="none" xmlns="http://www.w3.org/2000/svg">
<path d="M10.9649 1C11.3454 1 11.7259 1 12.1065 1C12.2016 1 12.2967 1 12.2967 1C13.3431 1.09932 14.2944 1.29796 15.2458 1.69523C17.0532 2.39046 18.5753 3.58228 19.7169 5.17138C20.8584 6.66115 21.5243 8.25025 21.8097 10.038C21.9049 10.5346 22 10.9318 22 11.4284C22 11.8257 22 12.1237 22 12.5209C22 12.6203 22 12.7196 22 12.8189C21.9049 13.5141 21.8097 14.11 21.7146 14.8053C21.239 16.6923 20.3828 18.2814 19.051 19.6719C17.2435 21.6582 14.9604 22.7507 12.3918 22.9494C10.5844 23.148 8.87203 22.7507 7.15968 21.9562C5.35221 21.0623 3.92525 19.7712 2.78369 18.0828C1.35674 15.8978 0.785957 13.4148 1.07135 10.7332C1.35674 8.84616 1.92752 7.15774 2.97395 5.66797C4.6863 3.08569 7.06455 1.59591 10.0136 1.19864C10.3941 1.09932 10.6795 1 10.9649 1ZM11.5357 22.1548C12.3918 22.1548 13.1529 22.0555 13.9139 21.8569C14.0091 21.8569 14.1042 21.7576 14.1042 21.6582C14.4847 20.4664 14.8652 19.2746 15.2458 18.0828C15.2458 17.9835 15.2458 17.8841 15.2458 17.7848C14.7701 17.0896 14.2945 16.3944 13.7237 15.6991C13.6285 15.5998 13.5334 15.5998 13.4383 15.5998C12.2016 15.5998 10.8698 15.5998 9.63307 15.5998C9.53794 15.5998 9.44281 15.6991 9.34768 15.6991C8.87203 16.3944 8.39638 17.0896 7.92072 17.7848C7.82559 17.8841 7.82559 17.9835 7.92072 18.0828C8.30125 19.2746 8.68177 20.4664 8.96716 21.6582C8.96716 21.7576 9.06229 21.8569 9.15742 21.8569C9.91846 22.0555 10.7746 22.1548 11.5357 22.1548ZM17.8143 17.4869C18.3851 17.4869 19.051 17.4869 19.6217 17.4869C19.7169 17.4869 19.812 17.4869 19.812 17.3875C20.6682 15.8978 21.1438 14.3087 21.3341 12.6203C21.3341 12.5209 21.3341 12.4216 21.239 12.3223C20.2877 11.6271 19.3364 10.8325 18.3851 10.1373C18.2899 10.038 18.1948 10.038 18.0997 10.1373C17.2435 10.4353 16.4824 10.6339 15.6263 10.9318C15.5311 10.9318 15.436 11.0312 15.436 11.1305C15.0555 12.4216 14.675 13.6134 14.2944 14.9046C14.2944 15.0039 14.2945 15.1032 14.3896 15.2025C14.8652 15.8978 15.3409 16.593 15.8165 17.2882C15.9117 17.3875 16.0068 17.4869 16.1019 17.3875C16.5776 17.4869 17.2435 17.4869 17.8143 17.4869ZM5.25708 17.4869C5.82786 17.4869 6.39864 17.4869 7.06455 17.4869C7.15968 17.4869 7.25481 17.3875 7.34994 17.3875C7.82559 16.6923 8.30125 15.9971 8.87203 15.3019C8.96716 15.2025 8.96716 15.1032 8.87203 15.0039C8.49151 13.7128 8.11098 12.5209 7.73046 11.2298C7.73046 11.1305 7.63533 11.0312 7.5402 11.0312C6.68403 10.6339 5.92299 10.4353 5.06682 10.1373C4.97169 10.1373 4.87656 10.1373 4.6863 10.2366C3.73499 10.9318 2.78369 11.6271 1.83239 12.4216C1.73726 12.5209 1.64213 12.6203 1.73726 12.7196C1.83239 14.408 2.30804 15.9971 3.25934 17.4869C3.25934 17.5862 3.35447 17.5862 3.4496 17.5862C4.11552 17.4869 4.6863 17.4869 5.25708 17.4869ZM19.1461 5.56865C19.1461 5.56865 19.051 5.46933 19.051 5.37001C18.0045 4.07887 16.6727 3.08569 15.2458 2.48978C15.1506 2.39046 15.0555 2.48978 14.9604 2.48978C14.0091 3.18501 13.0578 3.97955 12.1065 4.67478C12.0113 4.7741 11.9162 4.87342 11.9162 4.97274C11.9162 5.8666 11.9162 6.66115 11.9162 7.55502C11.9162 7.65434 12.0113 7.75366 12.1065 7.85297C13.1529 8.64752 14.1042 9.44207 15.1506 10.1373C15.2458 10.2366 15.3409 10.2366 15.436 10.2366C16.1971 9.93866 16.9581 9.74002 17.8143 9.44207C17.9094 9.44207 18.0045 9.34275 18.0997 9.14411C18.3851 8.05161 18.6704 6.95911 19.051 5.96592C19.051 5.76729 19.051 5.66797 19.1461 5.56865ZM11.1552 6.26388C11.1552 5.8666 11.1552 5.37001 11.1552 4.97274C11.1552 4.87342 11.06 4.7741 11.06 4.67478C10.1087 3.97955 9.15742 3.18501 8.20612 2.48978C8.11099 2.48978 8.01585 2.39046 7.92072 2.48978C6.39864 3.08569 5.06682 4.07887 4.02038 5.46933C4.02038 5.46933 4.02038 5.56865 4.02038 5.66797C4.40091 6.85979 4.78143 8.05161 5.16195 9.24343C5.16195 9.34275 5.25708 9.44207 5.35221 9.44207C6.11325 9.74002 6.87429 9.93866 7.73046 10.2366C7.82559 10.2366 7.92072 10.2366 8.01585 10.2366C9.06229 9.44207 10.1087 8.64752 11.1552 7.85297C11.2503 7.75366 11.2503 7.65434 11.2503 7.55502C11.2503 7.15774 11.1552 6.66115 11.1552 6.26388ZM11.5357 14.8053C12.1065 14.8053 12.7724 14.8053 13.3431 14.8053C13.5334 14.8053 13.5334 14.8053 13.6285 14.6066C14.0091 13.4148 14.3896 12.223 14.7701 11.0312C14.7701 10.9318 14.7701 10.8325 14.675 10.7332C13.7237 9.93866 12.6772 9.24343 11.7259 8.44888C11.6308 8.34957 11.5357 8.34957 11.4405 8.44888C10.4892 9.24343 9.44281 9.93866 8.49151 10.7332C8.39638 10.8325 8.39638 10.8325 8.39638 11.0312C8.7769 12.223 9.15742 13.4148 9.53794 14.7059C9.53794 14.8053 9.63307 14.9046 9.82333 14.9046C10.299 14.8053 10.9649 14.8053 11.5357 14.8053ZM3.83012 18.2814C4.97169 19.7712 6.39864 20.8637 8.20612 21.5589C8.20612 21.4596 8.20612 21.3603 8.11099 21.3603C7.82559 20.5657 7.63533 19.6719 7.34994 18.8773C7.25481 18.6787 7.25481 18.48 7.15968 18.3807C7.06455 18.2814 6.77916 18.3807 6.5889 18.3807C5.73273 18.2814 4.78143 18.2814 3.83012 18.2814ZM19.2412 18.2814C19.1461 18.2814 19.1461 18.2814 19.1461 18.2814C18.0997 18.2814 17.1484 18.2814 16.1019 18.2814C16.0068 18.2814 15.9117 18.3807 15.9117 18.4801C15.6263 19.4732 15.3409 20.4664 14.9604 21.4596C14.9604 21.4596 14.9604 21.5589 14.9604 21.6582C16.6727 20.8637 18.1948 19.5726 19.2412 18.2814ZM3.4496 6.26388C2.40317 7.85297 1.83239 9.64071 1.83239 11.5278C1.92752 11.5278 1.92752 11.5278 1.92752 11.5278C2.78369 10.9318 3.54473 10.2366 4.40091 9.64071C4.49604 9.54139 4.49604 9.54139 4.49604 9.44207C4.30578 9.0448 4.21065 8.74684 4.11552 8.44888C3.92525 7.75366 3.63986 7.05843 3.4496 6.26388ZM21.3341 11.5278C21.239 9.54139 20.6682 7.85297 19.7169 6.26388C19.7169 6.26388 19.7169 6.26388 19.7169 6.3632C19.4315 7.35638 19.051 8.44888 18.7656 9.44207C18.7656 9.54139 18.7656 9.64071 18.8607 9.64071C19.1461 9.93866 19.6217 10.2366 20.0023 10.5346C20.3828 10.9318 20.8584 11.2298 21.3341 11.5278ZM8.87203 2.0925C9.7282 2.78773 10.5844 3.38364 11.4405 3.97955C11.5357 4.07887 11.6308 4.07887 11.7259 3.97955C12.487 3.38364 13.3431 2.78773 14.1042 2.19182L14.1993 2.0925C12.3918 1.59591 10.6795 1.59591 8.87203 2.0925Z" fill="#003CFF" stroke="#003CFF" stroke-width="0.4"/>
</svg>
