<svg width="23" height="19" viewBox="0 0 23 19" fill="none" xmlns="http://www.w3.org/2000/svg">
<path d="M21.9997 16.7691C21.9997 16.5955 21.9997 16.4062 21.9997 16.1852C21.9997 14.118 21.3204 12.2559 20.1064 10.9461C18.9213 9.68361 17.2737 9.00504 15.4527 9.03661C14.7011 9.05239 14.2675 8.59475 13.8051 8.10555C13.4726 7.75837 13.1258 7.39542 12.6488 7.22183C12.6488 7.22183 12.6488 7.20605 12.6488 7.19027C12.6488 6.49592 12.6488 5.80158 12.6488 5.05989V4.72849C12.9957 4.79162 13.3426 4.83896 13.675 4.90208C14.5566 5.04411 15.3804 5.18613 16.2186 5.31238C16.7678 5.40706 17.3026 5.24925 17.7217 4.87052C18.1408 4.49178 18.3721 3.95524 18.401 3.3398C18.4299 2.62967 18.2276 2.01423 17.8229 1.60393C17.4327 1.20941 16.8835 1.02005 16.262 1.09895C15.6405 1.17785 15.0191 1.27254 14.4265 1.36722C13.9207 1.47768 13.4004 1.55659 12.8945 1.63549C12.7066 1.66705 12.461 1.58815 12.2731 1.4619C11.4059 0.862239 10.6833 0.846459 9.83057 1.41456C9.61378 1.55659 9.31028 1.63549 9.07903 1.60393C8.42866 1.52503 7.76384 1.43034 7.12793 1.31988C6.7088 1.25676 6.28967 1.17785 5.87054 1.13051C5.00339 1.00427 4.33856 1.33566 3.93389 2.09313C3.50031 2.91372 3.52921 3.73431 4.0206 4.49178C4.46864 5.18613 5.13346 5.47018 6.00062 5.31238C6.82442 5.17035 7.61932 5.04411 8.48647 4.90208C8.78998 4.85474 9.10794 4.8074 9.4259 4.76005C9.4259 4.94942 9.4259 5.12301 9.4259 5.2966C9.4259 5.89626 9.44035 6.48014 9.41144 7.03247C9.41144 7.14293 9.29582 7.31652 9.1513 7.45854C8.68881 7.9004 8.19742 8.32648 7.64822 8.78411C7.54705 8.86302 7.41698 8.98926 7.31581 8.98926C6.69435 9.00504 6.05843 9.00504 5.43696 9.00504C5.26353 9.00504 5.10455 9.00504 4.93112 9.00504C4.91667 8.92614 4.90222 8.84724 4.88776 8.76833C4.85886 8.54741 4.8155 8.32648 4.77214 8.12133C4.46864 6.63795 3.31242 5.54909 1.89606 5.42284C1.65037 5.40706 1.39022 5.40706 1.20234 5.58065C1.05781 5.72267 1 5.9436 1 6.29078C1.02891 9.8572 1.02891 13.4078 1 16.8638C1 17.2268 1.05781 17.4635 1.21679 17.6055C1.40467 17.7949 1.69373 17.7949 1.93942 17.7633C3.61593 17.5897 4.56981 16.4535 4.94557 14.2127C5.13346 14.2127 5.30689 14.2127 5.48032 14.2127C6.01507 14.1969 6.50646 14.1969 7.0123 14.2442C7.31581 14.2758 7.64822 14.4336 7.82165 14.6387C8.68881 15.6803 9.83057 16.2484 11.0446 16.2484C12.2586 16.2484 13.4004 15.6645 14.2675 14.6229C14.441 14.4178 14.7589 14.2442 15.0046 14.2442C15.8862 14.2127 16.421 14.3389 16.7534 14.6703C17.0858 15.0175 17.2303 15.6171 17.2303 16.6113C17.2303 16.6744 17.2303 16.7376 17.2303 16.8007C17.2303 16.9269 17.2448 17.0374 17.2303 17.1478C17.2014 17.4477 17.2448 17.6528 17.3749 17.7949C17.4905 17.9369 17.6784 18 17.953 18C17.9674 18 17.9819 18 18.0108 18C18.4588 17.9842 18.9213 17.9842 19.3693 17.9842C19.6873 17.9842 20.0052 17.9842 20.3087 17.9842C20.5544 17.9842 20.7568 17.9842 20.9302 17.9842C21.4361 18 21.6817 18 21.8407 17.8264C22.0142 17.6528 21.9997 17.353 21.9997 16.7691ZM18.0686 16.0432C18.0397 14.4494 17.0424 13.3289 15.5827 13.2658C14.7156 13.2343 14.0363 13.3763 13.357 14.2127C12.75 14.9701 11.8828 15.3646 10.9434 15.3331C9.94619 15.3015 9.00677 14.765 8.38531 13.8813C8.05289 13.4236 7.70603 13.2343 7.18574 13.2658C6.65099 13.2974 6.13069 13.2816 5.56704 13.2816C5.37915 13.2816 5.17682 13.2816 4.97448 13.2816V9.90454C5.16236 9.90454 5.35025 9.90454 5.52368 9.90454C6.07288 9.90454 6.65099 9.88876 7.21464 9.92032C7.69158 9.9361 8.02399 9.77829 8.37085 9.33644C8.74662 8.86302 9.1802 8.48428 9.59933 8.27913C10.1919 7.9793 10.2931 7.56901 10.2786 7.03247C10.2642 6.60639 10.2642 6.16453 10.2642 5.73845C10.2642 5.61221 10.2642 5.48596 10.2642 5.34394H11.7672C11.7672 5.47018 11.7672 5.59643 11.7672 5.73845C11.7672 6.16453 11.7817 6.60639 11.7528 7.03247C11.7383 7.50588 11.7961 7.9793 12.4465 8.27913C12.909 8.48428 13.3137 8.81568 13.516 9.14707C13.9496 9.82564 14.4699 9.95188 15.1781 9.92032C17.4038 9.82564 19.1236 10.7883 20.3087 12.7766C20.988 13.9286 21.2337 15.2384 21.1036 17.0216H18.0686V16.8165C18.0686 16.564 18.0686 16.3115 18.0686 16.0432ZM11.825 4.19195C11.3047 4.55491 10.7555 4.55491 10.2352 4.19195C9.98955 4.01837 9.61378 3.86056 9.25247 3.86056C9.20911 3.86056 9.16575 3.86056 9.12239 3.86056C8.06735 3.97102 7.0123 4.17617 5.98617 4.36554L5.9139 4.3971C5.48032 4.476 4.90222 4.46022 4.71433 3.92368C4.56981 3.52917 4.58426 2.9295 4.72878 2.48764C4.7866 2.34562 4.94557 1.88798 5.87054 2.04579C6.94004 2.23515 8.09625 2.4403 9.22356 2.56655C9.52707 2.59811 9.90283 2.48764 10.1919 2.25093C10.7555 1.82486 11.2325 1.82486 11.825 2.25093C12.1285 2.47186 12.5477 2.58233 12.8801 2.55077C13.5449 2.47186 14.2242 2.3614 14.889 2.25093C15.3515 2.17203 15.8429 2.09313 16.3198 2.03001C16.6811 1.98266 16.9846 2.06157 17.2014 2.26672C17.4182 2.48764 17.5483 2.80326 17.5483 3.21355C17.5483 3.62385 17.4327 3.93946 17.2014 4.16039C16.9702 4.38132 16.6378 4.46022 16.2331 4.3971C15.8862 4.33398 15.5249 4.27086 15.1781 4.20773C14.4554 4.08149 13.6894 3.93946 12.9523 3.86056C12.6055 3.84478 12.1719 3.97102 11.825 4.19195ZM4.03506 14.3705C3.9917 15.7276 3.09563 16.706 1.86716 16.7691V6.41702C2.40191 6.41702 2.90775 6.65373 3.31242 7.04825C3.76046 7.50588 4.0206 8.12133 4.03506 8.78411C4.09287 10.7883 4.09287 12.6188 4.03506 14.3705Z" fill="#003CFF" stroke="#003CFF" stroke-width="0.3"/>
</svg>
