<svg width="23" height="20" viewBox="0 0 23 20" fill="none" xmlns="http://www.w3.org/2000/svg">
<g clip-path="url(#clip0_220_277)">
<path d="M19.9762 16.4815C19.7013 16.4815 19.4264 16.2037 19.4264 15.9259V2.59259C19.4264 1.75926 18.8766 1.11111 18.2352 1.11111H4.67341C4.03197 1.11111 3.48217 1.75926 3.48217 2.59259V15.9259C3.48217 16.2037 3.20727 16.4815 2.93237 16.4815C2.65747 16.4815 2.38257 16.2037 2.38257 15.9259V2.59259C2.38257 1.2037 3.39054 0 4.67341 0H18.3268C19.6097 0 20.6176 1.2037 20.6176 2.59259V15.9259C20.526 16.2037 20.3427 16.4815 19.9762 16.4815Z" fill="#003CFF"/>
<path d="M4.76505 4.25879C4.49015 4.25879 4.30688 4.0736 4.30688 3.79583C4.30688 2.68471 5.13159 1.75879 6.13955 1.75879C6.41445 1.75879 6.59772 1.94397 6.59772 2.22175C6.59772 2.49953 6.32282 2.59212 6.13955 2.59212C5.68139 2.59212 5.22322 3.14768 5.22322 3.70323C5.22322 4.0736 5.03995 4.25879 4.76505 4.25879Z" fill="#003CFF"/>
<path d="M13.3785 17.7777H9.52986C8.70515 17.7777 8.06372 16.9444 8.06372 15.9259C8.06372 15.6481 8.24699 15.4629 8.52189 15.4629C8.79679 15.4629 8.98006 15.6481 8.98006 15.9259C8.98006 16.4814 9.25496 16.8518 9.52986 16.8518H13.3785C13.6534 16.8518 13.9283 16.4814 13.9283 15.9259C13.9283 15.6481 14.1115 15.4629 14.3864 15.4629C14.6613 15.4629 14.8446 15.6481 14.8446 15.9259C14.8446 16.9444 14.2032 17.7777 13.3785 17.7777Z" fill="#003CFF"/>
<path d="M20.7092 19.9997H2.1992C1.00797 19.9997 0 18.9812 0 17.7775V17.5923C0 16.3886 1.00797 15.3701 2.1992 15.3701H20.7092C21.9004 15.3701 22.9084 16.3886 22.9084 17.5923V17.6849C23 18.9812 21.992 19.9997 20.7092 19.9997ZM2.1992 16.4812C1.55777 16.4812 1.0996 16.9442 1.0996 17.5923V17.6849C1.0996 18.3331 1.55777 18.796 2.1992 18.796H20.7092C21.3506 18.796 21.8088 18.3331 21.8088 17.6849V17.5923C21.8088 16.9442 21.3506 16.4812 20.7092 16.4812H2.1992Z" fill="#003CFF"/>
</g>
<defs>
<clipPath id="clip0_220_277">
<rect width="23" height="20" fill="white"/>
</clipPath>
</defs>
</svg>
