<svg width="18" height="22" viewBox="0 0 18 22" fill="none" xmlns="http://www.w3.org/2000/svg">
<g clip-path="url(#clip0_220_284)">
<path d="M15.8182 0H2.18182C1 0 0 1.0211 0 2.22785V19.7722C0 20.9789 1 22 2.18182 22H15.8182C17 22 18 20.9789 18 19.7722V2.22785C18 1.0211 17 0 15.8182 0ZM16.9091 19.7722C16.9091 20.4219 16.4545 20.8861 15.8182 20.8861H2.18182C1.54545 20.8861 1.09091 20.4219 1.09091 19.7722V2.22785C1.09091 1.57806 1.54545 1.11392 2.18182 1.11392H15.8182C16.4545 1.11392 16.9091 1.67089 16.9091 2.22785V19.7722Z" fill="#003CFF"/>
<path d="M13.9091 14.4812C13.8182 14.6668 13.8182 14.8525 13.7273 14.9453C13.6364 15.131 13.6364 15.2238 13.5455 15.3166C12.6364 16.8947 11 18.0086 9 18.0086C6.18182 18.0086 3.81818 15.6879 3.81818 12.7175C3.81818 9.83982 6.18182 7.42632 9 7.42632C10.9091 7.42632 12.6364 8.54024 13.5455 10.1183C13.6364 10.2111 13.7273 10.3968 13.7273 10.5824C13.8182 10.7681 13.9091 10.8609 13.9091 11.0466C14 10.8609 14.1818 10.7681 14.4545 10.7681C14.5455 10.7681 14.7273 10.7681 14.8182 10.8609C14.7273 10.6753 14.7273 10.4896 14.6364 10.304C14.5455 10.1183 14.4545 10.0255 14.4545 9.83982C13.4545 7.79763 11.3636 6.49805 9.09091 6.49805C5.72727 6.49805 3 9.28286 3 12.7175C3 16.1521 5.72727 18.9369 9.09091 18.9369C11.4545 18.9369 13.4545 17.5445 14.4545 15.5951C14.5455 15.4094 14.6364 15.3166 14.6364 15.131C14.7273 14.9453 14.8182 14.7597 14.8182 14.574C14.7273 14.574 14.6364 14.6668 14.4545 14.6668C14.1818 14.7597 14 14.6668 13.9091 14.4812Z" fill="#003CFF"/>
<path d="M4.99996 13.2744C4.72723 13.2744 4.54541 13.0887 4.54541 12.8102C4.54541 10.3039 6.54541 8.26172 8.99996 8.26172C9.27268 8.26172 9.4545 8.44737 9.4545 8.72585C9.4545 9.00433 9.27268 9.18999 8.99996 9.18999C6.99996 9.18999 5.4545 10.768 5.4545 12.8102C5.4545 13.0887 5.27268 13.2744 4.99996 13.2744Z" fill="#003CFF"/>
<path d="M14.4544 4.64093C15.0569 4.64093 15.5453 4.14221 15.5453 3.52701C15.5453 2.91181 15.0569 2.41309 14.4544 2.41309C13.8519 2.41309 13.3635 2.91181 13.3635 3.52701C13.3635 4.14221 13.8519 4.64093 14.4544 4.64093Z" fill="#003CFF"/>
<path d="M11.7274 4.64093C12.3299 4.64093 12.8183 4.14221 12.8183 3.52701C12.8183 2.91181 12.3299 2.41309 11.7274 2.41309C11.1249 2.41309 10.6365 2.91181 10.6365 3.52701C10.6365 4.14221 11.1249 4.64093 11.7274 4.64093Z" fill="#003CFF"/>
<path d="M14.6364 10.3965C14.5455 10.3965 14.5455 10.3965 14.4546 10.3965C14.1819 10.3965 13.9091 10.4893 13.7273 10.675C13.5455 10.8606 13.4546 11.0463 13.4546 11.2319V14.388C13.4546 14.6665 13.5455 14.8522 13.7273 14.945C13.9091 15.1307 14.1819 15.2235 14.4546 15.2235H14.5455C15.091 15.2235 15.4546 14.8522 15.4546 14.388V11.2319C15.5455 10.8606 15.1819 10.4893 14.6364 10.3965ZM15.091 14.388C15.091 14.4809 15 14.6665 14.8182 14.6665C14.7273 14.6665 14.6364 14.7594 14.4546 14.7594C14.1819 14.7594 14 14.6665 13.9091 14.4809V14.388V11.2319V11.1391C14 10.9534 14.1819 10.8606 14.4546 10.8606C14.5455 10.8606 14.7273 10.8606 14.8182 10.9534C15 11.0463 15.091 11.1391 15.091 11.2319V14.388Z" fill="white"/>
<path d="M14.4545 9.93262C14 9.93262 13.7273 10.0254 13.5455 10.2111C13.1818 10.4896 13 10.7681 13 11.2322V14.3883C13 14.7596 13.1818 15.1309 13.5455 15.4094C13.8182 15.5951 14.0909 15.6879 14.4545 15.6879H14.5455C15.3636 15.6879 16.0909 15.1309 16.0909 14.3883V11.2322C16 10.5824 15.3636 9.93262 14.4545 9.93262ZM15.0909 14.3883C15.0909 14.4811 15 14.6668 14.8182 14.6668C14.7273 14.6668 14.6364 14.7596 14.4545 14.7596C14.1818 14.7596 14 14.6668 13.9091 14.4811V14.3883V11.2322V11.1394C14 10.9537 14.1818 10.8609 14.4545 10.8609C14.5455 10.8609 14.7273 10.8609 14.8182 10.9537C15 11.0465 15.0909 11.1394 15.0909 11.2322V14.3883Z" fill="#003CFF"/>
</g>
<defs>
<clipPath id="clip0_220_284">
<rect width="18" height="22" fill="white"/>
</clipPath>
</defs>
</svg>
