<svg width="26" height="24" viewBox="0 0 26 24" fill="none" xmlns="http://www.w3.org/2000/svg">
<path d="M13.0065 24C12.7616 24 12.5166 23.9217 12.3104 23.752C8.75263 20.8287 6.43236 18.845 4.34411 16.7308C-0.0515304 12.3589 -0.0257498 8.23491 3.10168e-05 7.59543C3.10168e-05 7.51713 3.10168e-05 7.43883 3.10168e-05 7.36052C3.10168e-05 3.36705 3.35154 0 7.33469 0C9.52606 0 11.6014 1.0571 13.0065 2.77977C14.3986 1.04405 16.4869 0 18.6783 0C22.6485 0 26.0129 3.36705 26.0129 7.36052C26.0129 7.43883 26.0129 7.51713 26.0129 7.59543C26.0516 8.23491 26.0645 12.3589 21.656 16.7308C19.5806 18.845 17.2603 20.8287 13.7026 23.752C13.4963 23.9217 13.2514 24 13.0065 24ZM2.1914 7.73899C2.17851 8.06525 2.10117 11.3931 5.89096 15.1517C7.78585 17.0701 9.88699 18.8972 13.0065 21.4682C16.1131 18.8972 18.2271 17.0701 20.1091 15.1648C23.886 11.4062 23.8344 8.0783 23.8215 7.73899C23.8215 7.68679 23.8087 7.63458 23.8215 7.58238C23.8215 7.51713 23.8215 7.45188 23.8215 7.38662C23.8215 4.5938 21.4626 2.2447 18.6783 2.2447C16.7576 2.2447 14.8756 3.4845 13.999 5.35073C13.8186 5.74225 13.4319 5.97716 13.0065 5.97716C12.5811 5.97716 12.1944 5.7292 12.0139 5.35073C11.1374 3.4584 9.25536 2.2186 7.33469 2.2186C4.55035 2.2186 2.1914 4.58075 2.1914 7.36052C2.1914 7.42578 2.1914 7.49103 2.1914 7.56933C2.20429 7.62153 2.20429 7.67374 2.1914 7.73899Z" fill="#313030"/>
</svg>
