<svg width="20" height="18" viewBox="0 0 20 18" fill="none" xmlns="http://www.w3.org/2000/svg">
<path d="M16.6562 12.55C15.0663 14.1375 13.2745 15.625 10.5364 17.8125C10.3723 17.9375 10.1831 18 10.0064 18C9.82974 18 9.62785 17.9375 9.47643 17.8125C6.73826 15.625 4.95908 14.1375 3.35656 12.55C-0.0377635 9.275 -0.0125271 6.175 9.12378e-05 5.7V5.525C9.12378e-05 2.525 2.57422 0 5.64047 0C7.33132 0 8.92123 0.7875 9.99378 2.0875C11.0663 0.7875 12.6815 0 14.3597 0C17.4133 0 20.0001 2.525 20.0001 5.525V5.7C20.0253 6.175 20.0379 9.275 16.6562 12.55Z" fill="#003CFF"/>
</svg>
