<svg width="187" height="30" viewBox="0 0 187 30" fill="none" xmlns="http://www.w3.org/2000/svg">
<path d="M33.7777 0.893782L33.2348 3.14767H24.897L25.246 0L28.775 0.388601L30.2487 0.544041L33.7777 0.893782Z" fill="#003DFF"/>
<path d="M33.2349 3.14746L32.7308 5.40135L24.5481 6.48943H24.5093L24.8971 3.14746H33.2349Z" fill="#FFE500"/>
<path d="M24.5496 6.48926L24.5093 6.52812V6.48926H24.5496Z" fill="black"/>
<path d="M132.901 5.16812C134.801 6.80024 135.771 9.01527 135.771 11.8132C135.771 14.6111 134.801 16.865 132.901 18.4583C131.001 20.0515 128.325 20.8676 124.951 20.8676H117.893V29.2225H115.101V2.75879H124.99C128.364 2.75879 131.001 3.53599 132.901 5.16812ZM130.923 16.7096C132.319 15.5438 133.017 13.9505 133.017 11.8521C133.017 9.71475 132.319 8.04376 130.923 6.91682C129.527 5.75102 127.549 5.20698 124.912 5.20698H117.893V18.4583H124.912C127.511 18.4194 129.527 17.8365 130.923 16.7096Z" fill="black"/>
<path d="M142.402 28.1348C140.851 27.2799 139.649 26.0752 138.757 24.5208C137.865 22.9664 137.438 21.2566 137.438 19.3136C137.438 17.3706 137.865 15.6219 138.757 14.1063C139.649 12.5519 140.851 11.3861 142.402 10.4923C143.954 9.63742 145.66 9.20996 147.56 9.20996C149.46 9.20996 151.206 9.63742 152.718 10.4923C154.269 11.3473 155.471 12.5519 156.325 14.1063C157.178 15.6607 157.643 17.3706 157.643 19.3136C157.643 21.2566 157.217 23.0053 156.325 24.5208C155.471 26.0752 154.269 27.2799 152.718 28.1348C151.167 28.9898 149.46 29.4561 147.56 29.4561C145.66 29.4172 143.954 28.9898 142.402 28.1348ZM151.361 26.0752C152.485 25.4146 153.339 24.5208 153.998 23.3162C154.618 22.1115 154.929 20.7903 154.929 19.2747C154.929 17.7592 154.618 16.3991 153.998 15.2333C153.377 14.0286 152.485 13.1348 151.361 12.4742C150.236 11.8136 148.956 11.5027 147.56 11.5027C146.164 11.5027 144.884 11.8136 143.76 12.4742C142.635 13.1348 141.743 14.0286 141.123 15.2333C140.463 16.4379 140.153 17.7592 140.153 19.2747C140.153 20.7903 140.463 22.1504 141.123 23.3162C141.782 24.5208 142.635 25.4146 143.76 26.0752C144.884 26.7359 146.164 27.0467 147.56 27.0467C148.995 27.0467 150.236 26.7359 151.361 26.0752Z" fill="black"/>
<path d="M161.289 1.16602H163.964V29.2619H161.289V1.16602Z" fill="black"/>
<path d="M186.961 20.1294H170.324C170.479 22.189 171.255 23.86 172.69 25.1424C174.125 26.4248 175.947 27.0465 178.119 27.0465C179.36 27.0465 180.485 26.8134 181.532 26.3859C182.579 25.9585 183.471 25.2978 184.208 24.4429L185.72 26.1916C184.828 27.2409 183.742 28.0569 182.424 28.601C181.105 29.145 179.632 29.417 178.042 29.417C175.986 29.417 174.202 28.9896 172.612 28.0958C171.022 27.2409 169.82 26.0362 168.928 24.4818C168.036 22.9274 167.61 21.2175 167.61 19.2745C167.61 17.3315 168.036 15.5828 168.889 14.0673C169.743 12.5129 170.906 11.3471 172.38 10.4533C173.853 9.59836 175.521 9.1709 177.344 9.1709C179.166 9.1709 180.834 9.59836 182.307 10.4533C183.781 11.3082 184.906 12.5129 185.759 14.0284C186.573 15.544 187 17.2927 187 19.2745L186.961 20.1294ZM172.535 13.3289C171.255 14.5725 170.518 16.1657 170.324 18.1087H184.402C184.208 16.1269 183.471 14.5336 182.191 13.3289C180.911 12.1243 179.283 11.5025 177.344 11.5025C175.443 11.5025 173.853 12.0854 172.535 13.3289Z" fill="black"/>
<path d="M15.5122 18.2257C17.3349 17.4097 18.731 16.3216 19.7393 14.9226C20.7476 13.5625 21.2518 12.0081 21.2518 10.3371C21.2518 7.96665 20.2822 6.14023 18.3044 4.81898C16.2878 3.49774 13.4956 2.87598 9.77271 2.87598H0L0.465367 6.72313V29.2231H5.23538V6.72313H9.81149C14.2325 6.72313 16.443 8.04437 16.443 10.6869C16.443 12.3578 15.7449 13.6791 14.31 14.5729C12.9139 15.4667 10.8586 15.933 8.10514 15.933L11.0137 19.5858L18.6922 29.1843H24.1991L15.5122 18.2257Z" fill="black"/>
<path d="M27.9221 29.184V12.4742H24.6257V9.28767L27.9221 8.86021L32.5758 8.08301V29.184H27.9221Z" fill="black"/>
<path d="M56.2319 2.17578V29.4167H55.5339L52.5865 28.2898C50.8414 29.4556 49.0963 30.0385 47.3124 30.0385C44.0936 30.0385 41.4953 29.1836 39.5562 27.4348C37.6172 25.6861 36.6477 23.3157 36.6477 20.2846C36.6477 16.8649 38.0826 13.9893 40.9136 11.6576C43.7446 9.32604 47.3124 8.12138 51.5782 8.08252V2.8364L56.2319 2.17578ZM47.6614 26.2302C48.9799 26.2302 50.2985 25.8416 51.5782 25.0644V11.9297C48.3982 11.9685 45.9163 12.7457 44.0936 14.339C42.2709 15.9323 41.3402 17.8753 41.3402 20.2846C41.3402 22.2276 41.9606 23.7043 43.1628 24.7146C44.4038 25.725 45.8775 26.2302 47.6614 26.2302Z" fill="black"/>
<path d="M66.3924 13.0182V29.184H61.7388V8.66591H62.9022L65.0351 9.63741C65.7332 9.13223 66.6251 8.74363 67.7885 8.47161C68.9132 8.19959 69.9603 8.08301 70.891 8.08301C74.1098 8.08301 76.553 8.78249 78.1042 10.1815C79.6942 11.5804 80.4698 13.4457 80.4698 15.7384V29.184H75.8161V16.2825C75.8161 13.3291 74.071 11.8524 70.6195 11.8524C69.0683 11.8524 67.6722 12.241 66.3924 13.0182Z" fill="black"/>
<path d="M84.3091 19.9351C84.3091 16.5154 85.3562 13.6787 87.4891 11.4248C89.622 9.17089 92.2203 8.04395 95.3228 8.04395C97.4557 8.04395 99.2008 8.51027 100.636 9.44291C102.071 10.3756 103.04 11.5414 103.622 12.9015C104.165 14.3004 104.475 15.816 104.475 17.5258C104.475 18.1864 104.436 18.8082 104.32 19.3911L89.0015 20.4792C89.1567 22.2279 89.8159 23.588 91.0181 24.5983C92.2203 25.6087 93.8491 26.1139 95.982 26.1139C98.5416 26.1139 100.713 25.803 102.42 25.1424V28.5621C101.024 29.4947 98.5803 29.9999 95.0125 29.9999C91.9489 29.9999 89.4281 29.1061 87.3728 27.2797C85.3174 25.4921 84.3091 23.0439 84.3091 19.9351ZM94.8574 11.8522C93.6164 11.8522 92.4918 12.3186 91.4447 13.2901C90.3976 14.2616 89.6996 15.5439 89.273 17.1761L99.5886 16.2434C99.5886 14.961 99.2008 13.9118 98.4252 13.0958C97.6884 12.2408 96.4862 11.8522 94.8574 11.8522Z" fill="black"/>
</svg>
