<svg width="18" height="45" viewBox="0 0 18 45" fill="none" xmlns="http://www.w3.org/2000/svg">
<g clip-path="url(#clip0_220_355)">
<path d="M0.0390668 22.2054C0.0390668 22.2401 2.14983e-05 22.2747 2.14946e-05 22.3094C2.14909e-05 22.344 2.14872e-05 22.3786 2.14835e-05 22.4133C2.14798e-05 22.4479 2.14761e-05 22.4826 2.14724e-05 22.5172C2.14687e-05 22.5519 2.1465e-05 22.5865 2.14613e-05 22.6211C2.14576e-05 22.6558 2.1454e-05 22.6904 2.14503e-05 22.7251C2.14466e-05 22.7597 0.0390668 22.7944 0.0390668 22.829C0.0390668 22.8636 0.0390668 22.8983 0.0781121 22.9329C0.0781121 22.9676 0.117157 23.0022 0.156203 23.0368C0.156203 23.0715 0.19525 23.0715 0.19525 23.1061L0.19525 23.1408L15.8525 44.5149C16.2039 44.9999 16.9067 45.1385 17.4534 44.8267C18 44.5149 18.1562 43.8914 17.8048 43.4064L2.53798 22.4826L17.8048 1.59343C18.1562 1.10844 18 0.484886 17.4534 0.173107C17.2582 0.0691795 17.0239 -0.000103066 16.8287 -0.00010308C16.4382 -0.000103108 16.0868 0.173107 15.8525 0.484882L0.19525 21.9283L0.19525 21.9629C0.19525 21.9976 0.156203 21.9976 0.156203 22.0322C0.117158 22.0669 0.117158 22.1015 0.0781122 22.1362C0.0390668 22.1362 0.0390668 22.1708 0.0390668 22.2054Z" fill="white"/>
</g>
<defs>
<clipPath id="clip0_220_355">
<rect width="18" height="45" fill="white" transform="translate(18 45) rotate(-180)"/>
</clipPath>
</defs>
</svg>
