<svg width="18" height="45" viewBox="0 0 18 45" fill="none" xmlns="http://www.w3.org/2000/svg">
<g clip-path="url(#clip0_220_353)">
<path d="M17.9609 22.7946C17.9609 22.7599 18 22.7253 18 22.6906C18 22.656 18 22.6213 18 22.5867C18 22.5521 18 22.5174 18 22.4828C18 22.4481 18 22.4135 18 22.3789C18 22.3442 18 22.3096 18 22.2749C18 22.2403 17.9609 22.2056 17.9609 22.171C17.9609 22.1364 17.9609 22.1017 17.9219 22.0671C17.9219 22.0324 17.8828 21.9978 17.8438 21.9632C17.8438 21.9285 17.8047 21.9285 17.8047 21.8939V21.8592L2.14748 0.485091C1.79607 0.000102209 1.09325 -0.138466 0.546616 0.173312C-2.13259e-05 0.485091 -0.156204 1.10865 0.195206 1.59364L15.462 22.5174L0.195206 43.4066C-0.156204 43.8916 -2.13259e-05 44.5151 0.546616 44.8269C0.741844 44.9308 0.976117 45.0001 1.17135 45.0001C1.5618 45.0001 1.91321 44.8269 2.14748 44.5151L17.8047 23.0717V23.0371C17.8047 23.0024 17.8438 23.0024 17.8438 22.9678C17.8828 22.9331 17.8828 22.8985 17.9219 22.8638C17.9609 22.8638 17.9609 22.8292 17.9609 22.7946Z" fill="white"/>
</g>
<defs>
<clipPath id="clip0_220_353">
<rect width="18" height="45" fill="white"/>
</clipPath>
</defs>
</svg>
