<svg width="23" height="23" viewBox="0 0 23 23" fill="none" xmlns="http://www.w3.org/2000/svg">
<path d="M22.8226 11.0887C22.5809 10.7954 22.2929 10.5432 22.0255 10.2705C21.8352 10.0801 21.6346 9.90005 21.4598 9.69938C20.8735 9.04074 20.9095 8.28435 21.141 7.50222C21.2541 7.1163 21.3929 6.73553 21.4855 6.34447C21.6089 5.81962 21.4855 5.59322 20.9661 5.42342C20.6318 5.31536 20.2873 5.25361 19.9479 5.16614C19.701 5.10439 19.4593 5.0375 19.2176 4.96032C18.4 4.6876 18.0451 4.04955 17.8806 3.25199C17.7932 2.8352 17.7006 2.41841 17.5669 2.01706C17.4023 1.51279 17.1761 1.39445 16.6618 1.50765C16.3481 1.57454 16.0498 1.69289 15.7362 1.77007C15.3607 1.86269 14.9802 1.96046 14.5997 2.00162C13.8746 2.0788 13.3757 1.64658 12.9129 1.17833C12.7329 0.998238 12.5889 0.782125 12.4038 0.612321C12.1621 0.391062 11.8947 0.205822 11.6376 0C11.5501 0 11.4576 0 11.3701 0C10.9227 0.221259 10.6193 0.60203 10.2851 0.957074C10.0537 1.20921 9.80167 1.4459 9.53426 1.66201C9.06114 2.04279 8.52118 2.11482 7.94521 1.95531C7.42067 1.81124 6.90128 1.64658 6.3716 1.51794C5.83163 1.3893 5.60536 1.51279 5.43566 2.03764C5.32766 2.3721 5.26595 2.71685 5.17853 3.05646C5.12196 3.27257 5.07054 3.49383 4.99854 3.7048C4.7517 4.40974 4.28373 4.87284 3.53292 5.0375C3.11637 5.13012 2.70497 5.23303 2.29357 5.33594C2.14444 5.37711 1.9953 5.43371 1.85131 5.49031C1.57876 5.60351 1.42962 5.81448 1.48619 6.11292C1.56333 6.49884 1.68675 6.87446 1.77417 7.26038C1.8616 7.63086 1.94902 8.00134 2.00559 8.37697C2.08273 8.91725 1.83588 9.35977 1.49648 9.74054C1.23421 10.0338 0.915371 10.2757 0.642817 10.5638C0.411403 10.816 0.210844 11.0938 0 11.3614C0 11.4489 0 11.5415 0 11.629C0.215986 12.0715 0.581106 12.3802 0.941084 12.6992C1.04393 12.7867 1.14678 12.8742 1.24449 12.9617C2.01073 13.6615 2.17529 14.5105 1.8616 15.4778C1.73818 15.8586 1.60447 16.2445 1.5119 16.6356C1.38334 17.1759 1.50676 17.3971 2.03644 17.5721C2.37071 17.6801 2.71526 17.7367 3.05466 17.8242C3.29122 17.886 3.53292 17.9426 3.76433 18.0249C4.43801 18.2667 4.86998 18.735 5.0294 19.4451C5.12711 19.8773 5.22481 20.3044 5.33795 20.7314C5.54879 21.5033 5.78021 21.6371 6.55673 21.4312C7.01956 21.3078 7.47724 21.174 7.93493 21.0402C8.6086 20.8498 9.18971 21.0247 9.70396 21.4673C9.89938 21.6371 10.0742 21.8326 10.2594 22.023C10.5062 22.2751 10.7376 22.5427 10.9999 22.7691C11.365 23.0778 11.6118 23.0778 11.977 22.7639C12.2392 22.5427 12.4655 22.2803 12.7021 22.0333C12.8101 21.9201 12.9129 21.7966 13.0209 21.6834C13.6637 21.0093 14.4351 20.8344 15.3196 21.0916C15.7567 21.2203 16.1887 21.3746 16.631 21.4776C17.1658 21.6062 17.392 21.4776 17.5669 20.9476C17.6749 20.6234 17.7315 20.2786 17.8137 19.9493C17.8754 19.7023 17.9372 19.4553 18.0194 19.2187C18.292 18.4005 18.9245 18.0403 19.7216 17.8757C20.1022 17.7985 20.4776 17.7007 20.853 17.6029C20.9867 17.5669 21.1204 17.5 21.2438 17.4331C21.4238 17.3354 21.5369 17.1759 21.5009 16.9752C21.4238 16.5584 21.3107 16.1519 21.2181 15.7351C21.1358 15.3646 21.0381 14.9942 20.9867 14.6185C20.9044 14.0731 21.1615 13.6254 21.5009 13.2344C21.7426 12.9617 22.0306 12.7301 22.2929 12.4728C22.478 12.2876 22.6683 12.1024 22.8226 11.8965C23.054 11.6032 23.0643 11.382 22.8226 11.0887Z" fill="#003CFF"/>
</svg>
