<svg width="23" height="19" viewBox="0 0 23 19" fill="none" xmlns="http://www.w3.org/2000/svg">
<path d="M15.0486 12.8148C15.0125 12.8148 14.9836 12.8148 14.9476 12.8148C10.9278 12.8148 6.91524 12.8148 2.89548 12.8148C2.80887 12.8148 2.72227 12.822 2.63567 12.8076C2.31091 12.7431 2.09441 12.5496 2.01502 12.2271C1.82739 11.4459 1.63975 10.6647 1.45933 9.88344C0.983018 7.86948 0.506708 5.85553 0.0303984 3.84157C-0.034553 3.56205 -0.0056857 3.29687 0.218036 3.08902C0.362372 2.96002 0.535576 2.88834 0.73043 2.87401C0.780947 2.86684 0.831465 2.87401 0.874766 2.87401C6.3812 2.87401 11.8876 2.87401 17.3941 2.87401C17.5528 2.87401 17.5167 2.89551 17.56 2.745C17.7405 2.02829 17.9209 1.31875 18.0941 0.602037C18.1951 0.207846 18.4549 0 18.8663 0C19.9993 0 21.1252 0 22.2582 0C22.6551 0 22.9727 0.286684 22.9943 0.666541C23.0232 1.07507 22.6984 1.41909 22.2798 1.41909C21.3272 1.41909 20.3674 1.41909 19.4148 1.41909C19.3426 1.41909 19.3137 1.44059 19.2921 1.51226C18.6787 3.96341 18.0652 6.41456 17.4518 8.86571C16.8672 11.195 16.2899 13.5243 15.6981 15.8536C15.662 15.9898 15.5899 16.126 15.5105 16.2407C15.4094 16.3912 15.2579 16.4557 15.0775 16.4557C14.8465 16.4557 14.6156 16.4557 14.3486 16.4557C14.8393 16.7567 15.0919 17.1724 15.063 17.7243C15.0486 18.0898 14.897 18.3908 14.63 18.6345C14.0743 19.1433 13.2155 19.0932 12.7103 18.5341C12.198 17.9679 12.234 16.9287 13.0712 16.4557C10.5814 16.4557 8.0988 16.4557 5.60178 16.4557C6.02036 16.7065 6.27295 17.0577 6.30903 17.5307C6.34511 18.0038 6.17913 18.398 5.80385 18.6918C5.22651 19.1505 4.38214 19.0573 3.91305 18.484C3.42952 17.8963 3.52334 16.9144 4.32441 16.4557C4.2811 16.4557 4.25945 16.4485 4.23059 16.4485C3.82644 16.4485 3.4223 16.4485 3.02538 16.4485C2.66454 16.4485 2.44082 16.2693 2.36865 15.911C2.32535 15.6745 2.36865 15.4523 2.52742 15.2659C2.63567 15.1369 2.78001 15.0653 2.94599 15.0653C2.99651 15.0653 3.04703 15.0653 3.09033 15.0653C6.82864 15.0653 10.5742 15.0653 14.3125 15.0653C14.4857 15.0653 14.4496 15.0868 14.4857 14.9291C14.6589 14.2482 14.8249 13.5745 14.9981 12.8936C15.0342 12.8793 15.0414 12.8506 15.0486 12.8148ZM13.9228 7.11694C13.9589 7.11694 13.9877 7.1241 14.0094 7.1241C14.8032 7.1241 15.6043 7.1241 16.3981 7.1241C16.4703 7.1241 16.4847 7.09544 16.4992 7.0381C16.7085 6.19238 16.925 5.33949 17.1343 4.49378C17.1559 4.41494 17.1703 4.3361 17.192 4.25009C16.2177 4.25009 15.2507 4.25009 14.2764 4.25009C14.1537 5.21049 14.0382 6.16371 13.9228 7.11694ZM4.80071 7.1241C4.80071 7.0811 4.7935 7.05243 4.7935 7.02376C4.69246 6.13504 4.59143 5.23915 4.49039 4.35043C4.48318 4.27876 4.46152 4.25009 4.38214 4.25009C3.51612 4.25009 2.6501 4.25009 1.78409 4.25009C1.75522 4.25009 1.72635 4.25009 1.69027 4.25009C1.69748 4.27876 1.69748 4.30026 1.7047 4.32177C1.9212 5.23199 2.13771 6.14221 2.347 7.0596C2.36143 7.1241 2.39751 7.13127 2.44803 7.13127C3.19858 7.13127 3.94913 7.13127 4.69968 7.13127C4.73576 7.1241 4.76463 7.1241 4.80071 7.1241ZM5.91932 4.25726C6.02757 5.21765 6.13583 6.17088 6.24408 7.1241C7.05958 7.1241 7.86065 7.1241 8.66171 7.1241C8.66171 6.17088 8.66171 5.21765 8.66171 4.25726C7.75239 4.25726 6.84307 4.25726 5.91932 4.25726ZM10.1123 4.25726C10.1123 5.21765 10.1123 6.16371 10.1123 7.11694C10.9061 7.11694 11.6856 7.11694 12.4794 7.11694C12.5949 6.16371 12.7176 5.21049 12.833 4.25726C11.9165 4.25726 11.0144 4.25726 10.1123 4.25726ZM13.3887 11.3885C13.4176 11.3885 13.432 11.3957 13.4465 11.3957C14.0815 11.3957 14.7094 11.3957 15.3445 11.3957C15.4167 11.3957 15.4239 11.3527 15.4311 11.3097C15.6404 10.464 15.8569 9.61826 16.0662 8.77971C16.0878 8.70803 16.1023 8.63636 16.1167 8.55753C15.3156 8.55753 14.5362 8.55753 13.7424 8.55753C13.6197 9.49642 13.5042 10.4425 13.3887 11.3885ZM8.67615 11.3885C8.67615 10.4353 8.67615 9.49642 8.67615 8.55036C7.91116 8.55036 7.16061 8.55036 6.41007 8.55036C6.51832 9.50358 6.62657 10.4425 6.73482 11.3885C7.38434 11.3885 8.02663 11.3885 8.67615 11.3885ZM4.9667 8.55753C4.20894 8.55753 3.4656 8.55753 2.71505 8.55753C2.72227 8.59336 2.72949 8.62203 2.73671 8.6507C2.94599 9.53942 3.1625 10.4281 3.36457 11.3169C3.379 11.3814 3.40787 11.4029 3.47282 11.4029C4.04295 11.4029 4.6203 11.4029 5.19042 11.4029C5.21929 11.4029 5.24816 11.4029 5.29146 11.4029C5.18321 10.4425 5.07495 9.49642 4.9667 8.55753ZM10.1267 8.55036C10.1267 9.50358 10.1267 10.4425 10.1267 11.3885C10.7402 11.3885 11.3392 11.3885 11.9454 11.3885C12.0608 10.4425 12.1835 9.49642 12.299 8.55036C11.5629 8.55036 10.8484 8.55036 10.1267 8.55036Z" fill="#003CFF"/>
</svg>
