<svg width="18" height="18" viewBox="0 0 18 18" fill="none" xmlns="http://www.w3.org/2000/svg">
<path d="M10.9131 3.0726C8.76037 0.922172 5.24051 0.922172 3.07202 3.0726C0.919249 5.22302 0.919249 8.73905 3.07202 10.9052C4.15626 11.9882 5.57049 12.5219 6.98472 12.5219C8.39895 12.5219 9.8289 11.9882 10.8974 10.9052C13.0659 8.73905 13.0659 5.22302 10.9131 3.0726ZM10.3632 10.3401C8.50895 12.1923 5.49192 12.1923 3.63771 10.3401C1.7835 8.4879 1.7835 5.47417 3.63771 3.62198C4.56482 2.69588 5.77477 2.24068 7.00044 2.24068C8.2261 2.24068 9.43605 2.69588 10.3632 3.62198C12.2174 5.47417 12.2174 8.4879 10.3632 10.3401Z" fill="#C9C9C9"/>
<path d="M18 17.4663L12.1859 11.6586C13.3488 10.3715 13.993 8.72335 13.993 6.98103C13.993 5.11315 13.2702 3.35513 11.9502 2.03663C9.21606 -0.678875 4.78481 -0.678875 2.05063 2.03663C-0.683544 4.75213 -0.683544 9.19425 2.05063 11.9097C3.37058 13.2283 5.13051 13.9503 7.00044 13.9503C8.72894 13.9503 10.3474 13.3381 11.636 12.1923L17.45 18L18 17.4663ZM2.60061 11.3604C0.180707 8.9431 0.180707 5.00327 2.60061 2.586C3.81056 1.37737 5.41336 0.780903 7.00044 0.780903C8.58752 0.780903 10.1746 1.39307 11.3845 2.6017C12.5631 3.76324 13.2073 5.3172 13.2073 6.98103C13.2073 8.64487 12.5631 10.1988 11.3845 11.3604C10.206 12.5376 8.65037 13.1812 7.00044 13.1812C5.3505 13.1812 3.77914 12.5376 2.60061 11.3604Z" fill="#C9C9C9"/>
</svg>
