<svg width="25" height="22" viewBox="0 0 25 22" fill="none" xmlns="http://www.w3.org/2000/svg">
<path d="M25 7.07134C25 7.23249 25 7.40008 25 7.56123C24.9872 7.59346 24.968 7.61924 24.968 7.65147C24.7951 8.90842 24.1421 9.83662 23.0281 10.4232C22.8809 10.5005 22.8489 10.5972 22.8489 10.7519C22.8553 14.2327 22.8489 17.7199 22.8489 21.2007C22.8489 21.7744 22.6248 22 22.055 22C15.6785 22 9.30832 22 2.93178 22C2.35558 22 2.13151 21.7744 2.13151 21.2007C2.13151 17.7199 2.13151 14.2327 2.13151 10.7519C2.13151 10.5843 2.09309 10.4941 1.93304 10.4103C0.89589 9.86241 0.274881 8.99866 0.0444036 7.84485C-0.0452266 7.41297 -0.00681367 7.01333 0.230066 6.60079C1.39526 4.57678 2.54124 2.53344 3.68083 0.490096C3.87929 0.135573 4.12898 -0.00623635 4.52591 0.000209534C5.6719 0.0131013 6.82429 0.00665541 7.97027 0.00665541C12.1189 0.00665541 16.2739 0.0131013 20.4225 0.000209534C20.8514 0.000209534 21.1139 0.154911 21.3188 0.528772C22.5352 2.71393 23.7708 4.89263 25 7.07134ZM3.37352 20.7431C4.09697 20.7431 4.80761 20.7431 5.53105 20.7431C5.53105 20.6141 5.53105 20.5046 5.53105 20.4014C5.53105 18.3516 5.52465 16.3018 5.53105 14.2521C5.53745 12.8662 6.42095 11.9831 7.79741 11.9831C8.30959 11.9831 8.82816 11.9573 9.33393 11.9895C9.66684 12.0153 10.0254 12.0669 10.3199 12.2087C11.1329 12.5955 11.5107 13.2916 11.5107 14.1876C11.5171 16.2761 11.5107 18.371 11.5107 20.4594C11.5107 20.5561 11.5107 20.6464 11.5107 20.7302C14.9038 20.7302 18.2521 20.7302 21.6069 20.7302C21.6069 17.417 21.6069 14.1296 21.6069 10.8164C20.2752 10.8422 19.2189 10.3072 18.4314 9.23071C17.6887 10.2427 16.7156 10.8035 15.4736 10.81C14.2252 10.8164 13.2456 10.2492 12.503 9.25005C10.9793 11.4094 7.91265 11.2547 6.53619 9.2436C5.74872 10.3201 4.69877 10.8486 3.36712 10.8228C3.37352 14.1489 3.37352 17.4428 3.37352 20.7431ZM1.79219 6.37519C8.9434 6.37519 16.0562 6.37519 23.1946 6.37519C23.169 6.32362 23.1562 6.29139 23.1434 6.2656C22.2279 4.64124 21.3124 3.02333 20.3969 1.39252C20.3136 1.24426 20.2048 1.25071 20.0703 1.25071C15.0126 1.25071 9.96134 1.25071 4.90364 1.24426C4.72438 1.24426 4.62835 1.30228 4.54512 1.45698C3.66802 3.02977 2.78453 4.59612 1.90103 6.16247C1.86262 6.22693 1.83701 6.29139 1.79219 6.37519ZM10.2814 20.7495C10.2879 20.685 10.2943 20.6528 10.2943 20.627C10.2943 18.4677 10.2943 16.3018 10.2943 14.1425C10.2943 13.601 9.92933 13.2336 9.39155 13.2272C8.86017 13.2207 8.33519 13.2272 7.80381 13.2272C7.09318 13.2272 6.76667 13.5494 6.76667 14.2585C6.76667 16.3405 6.76667 18.4161 6.76667 20.4981C6.76667 20.5819 6.76667 20.6721 6.76667 20.7624C7.95747 20.7495 9.10985 20.7495 10.2814 20.7495ZM5.87677 7.65147C4.33385 7.65147 2.80373 7.65147 1.26722 7.65147C1.49129 8.79884 2.43881 9.58523 3.57199 9.58523C4.70517 9.57879 5.65909 8.78594 5.87677 7.65147ZM7.21482 7.63858C7.43249 8.88263 8.59768 9.7206 9.8397 9.55945C11.0433 9.3983 11.818 8.29606 11.786 7.63858C10.2686 7.63858 8.75133 7.63858 7.21482 7.63858ZM13.188 7.64502C13.2264 8.4701 14.1291 9.57879 15.4544 9.58523C16.786 9.59168 17.7015 8.47654 17.74 7.64502C16.229 7.64502 14.7053 7.64502 13.188 7.64502ZM19.1164 7.64502C19.2701 8.78594 20.352 9.6368 21.5556 9.57234C22.6248 9.51433 23.6684 8.57323 23.6876 7.64502C22.1766 7.64502 20.6593 7.64502 19.1164 7.64502Z" fill="white"/>
<path d="M16.0432 18.0036C15.5118 18.0036 14.9869 18.0101 14.4555 18.0036C13.3799 17.9907 12.6885 17.301 12.6757 16.2181C12.6693 15.3995 12.6693 14.5809 12.6757 13.7622C12.6885 12.6987 13.3927 11.9961 14.4491 11.9896C15.5246 11.9832 16.6002 11.9832 17.6758 11.9896C18.7257 11.9961 19.4364 12.6987 19.4428 13.7622C19.4492 14.5809 19.4492 15.3995 19.4428 16.2181C19.4364 17.2881 18.7449 17.9843 17.6822 17.9972C17.1316 18.0101 16.5874 18.0036 16.0432 18.0036ZM16.056 16.766C16.5938 16.766 17.1316 16.766 17.6694 16.766C18.0407 16.766 18.2135 16.5984 18.2135 16.231C18.2199 15.4124 18.2199 14.5938 18.2135 13.7751C18.2135 13.3948 18.0407 13.2208 17.6566 13.2208C16.5938 13.2208 15.5246 13.2208 14.4619 13.2208C14.0778 13.2208 13.9049 13.3948 13.9049 13.7751C13.8985 14.5873 13.9049 15.3995 13.9049 16.2052C13.9049 16.6049 14.0714 16.766 14.4747 16.766C14.9997 16.766 15.531 16.766 16.056 16.766Z" fill="white"/>
</svg>
