<svg width="30" height="26" viewBox="0 0 30 26" fill="none" xmlns="http://www.w3.org/2000/svg">
<path d="M30 8.35704C30 8.54749 30 8.74555 30 8.936C29.9846 8.97409 29.9616 9.00456 29.9616 9.04265C29.7542 10.5281 28.9705 11.6251 27.6338 12.3183C27.4571 12.4097 27.4186 12.524 27.4186 12.7068C27.4263 16.8205 27.4186 20.9417 27.4186 25.0554C27.4186 25.7334 27.1498 26 26.466 26C18.8142 26 11.17 26 3.51813 26C2.8267 26 2.55781 25.7334 2.55781 25.0554C2.55781 20.9417 2.55781 16.8205 2.55781 12.7068C2.55781 12.5088 2.51171 12.4021 2.31965 12.3031C1.07507 11.6556 0.329857 10.6348 0.0532843 9.27118C-0.0542719 8.76079 -0.0081764 8.28848 0.276079 7.80093C1.67431 5.40893 3.04949 2.99407 4.41699 0.579205C4.65515 0.160223 4.95477 -0.00737023 5.43109 0.000247631C6.80628 0.0154833 8.18914 0.00786549 9.56433 0.00786549C14.5426 0.00786549 19.5286 0.0154833 24.507 0.000247631C25.0217 0.000247631 25.3367 0.183076 25.5825 0.624912C27.0422 3.20737 28.5249 5.7822 30 8.35704ZM4.04823 24.5145C4.91636 24.5145 5.76913 24.5145 6.63726 24.5145C6.63726 24.3622 6.63726 24.2327 6.63726 24.1108C6.63726 21.6883 6.62958 19.2658 6.63726 16.8433C6.64494 15.2055 7.70514 14.1618 9.3569 14.1618C9.9715 14.1618 10.5938 14.1314 11.2007 14.1695C11.6002 14.1999 12.0304 14.2609 12.3838 14.4285C13.3595 14.8855 13.8128 15.7083 13.8128 16.7672C13.8205 19.2353 13.8128 21.7111 13.8128 24.1793C13.8128 24.2936 13.8128 24.4002 13.8128 24.4993C17.8846 24.4993 21.9026 24.4993 25.9282 24.4993C25.9282 20.5837 25.9282 16.6986 25.9282 12.783C24.3303 12.8135 23.0626 12.1812 22.1177 10.909C21.2265 12.105 20.0587 12.7678 18.5683 12.7754C17.0702 12.783 15.8948 12.1126 15.0036 10.9319C13.1751 13.4839 9.49518 13.301 7.84343 10.9243C6.89847 12.1964 5.63852 12.8211 4.04055 12.7906C4.04823 16.7214 4.04823 20.6142 4.04823 24.5145ZM2.15063 7.53431C10.7321 7.53431 19.2674 7.53431 27.8335 7.53431C27.8028 7.47337 27.7874 7.43528 27.772 7.40481C26.6734 5.48511 25.5748 3.57302 24.4762 1.64571C24.3763 1.47049 24.2457 1.47811 24.0844 1.47811C18.0152 1.47811 11.9536 1.47811 5.88437 1.47049C5.66925 1.47049 5.55402 1.53906 5.45414 1.72188C4.40163 3.58064 3.34143 5.43178 2.28123 7.28292C2.23514 7.3591 2.20441 7.43528 2.15063 7.53431ZM12.3377 24.5221C12.3454 24.446 12.3531 24.4079 12.3531 24.3774C12.3531 21.8254 12.3531 19.2658 12.3531 16.7138C12.3531 16.0739 11.9152 15.6397 11.2699 15.6321C10.6322 15.6245 10.0022 15.6321 9.36458 15.6321C8.51181 15.6321 8.12 16.013 8.12 16.851C8.12 19.3115 8.12 21.7645 8.12 24.225C8.12 24.3241 8.12 24.4307 8.12 24.5374C9.54896 24.5221 10.9318 24.5221 12.3377 24.5221ZM7.05212 9.04265C5.20062 9.04265 3.36448 9.04265 1.52066 9.04265C1.78955 10.3986 2.92657 11.328 4.28639 11.328C5.64621 11.3204 6.79091 10.3834 7.05212 9.04265ZM8.65778 9.02741C8.91899 10.4977 10.3172 11.488 11.8076 11.2975C13.252 11.1071 14.1816 9.80443 14.1431 9.02741C12.3224 9.02741 10.5016 9.02741 8.65778 9.02741ZM15.8256 9.03503C15.8717 10.0101 16.955 11.3204 18.5453 11.328C20.1432 11.3356 21.2419 10.0177 21.2879 9.03503C19.4749 9.03503 17.6464 9.03503 15.8256 9.03503ZM22.9397 9.03503C23.1241 10.3834 24.4224 11.3889 25.8668 11.3128C27.1498 11.2442 28.402 10.132 28.4251 9.03503C26.612 9.03503 24.7912 9.03503 22.9397 9.03503Z" fill="#003CFF"/>
<path d="M19.2519 21.277C18.6142 21.277 17.9842 21.2846 17.3466 21.277C16.0559 21.2618 15.2262 20.4467 15.2108 19.1669C15.2031 18.1994 15.2031 17.2319 15.2108 16.2645C15.2262 15.0075 16.0713 14.1772 17.3389 14.1696C18.6296 14.1619 19.9202 14.1619 21.2109 14.1696C22.4709 14.1772 23.3236 15.0075 23.3313 16.2645C23.339 17.2319 23.339 18.1994 23.3313 19.1669C23.3236 20.4314 22.4939 21.2542 21.2186 21.2694C20.5579 21.2846 19.9049 21.277 19.2519 21.277ZM19.2672 19.8144C19.9126 19.8144 20.5579 19.8144 21.2032 19.8144C21.6488 19.8144 21.8563 19.6163 21.8563 19.1821C21.8639 18.2146 21.8639 17.2472 21.8563 16.2797C21.8563 15.8303 21.6488 15.6246 21.1879 15.6246C19.9126 15.6246 18.6296 15.6246 17.3543 15.6246C16.8933 15.6246 16.6859 15.8303 16.6859 16.2797C16.6782 17.2396 16.6859 18.1994 16.6859 19.1516C16.6859 19.624 16.8856 19.8144 17.3696 19.8144C17.9996 19.8144 18.6372 19.8144 19.2672 19.8144Z" fill="#003CFF"/>
</svg>
