<svg width="117" height="112" viewBox="0 0 117 112" fill="none" xmlns="http://www.w3.org/2000/svg">
<g clip-path="url(#clip0_215_144)">
<path d="M116.448 81.8039L77.8159 31.2941C77.264 30.7451 77.264 30.1961 76.1602 30.1961C76.1602 30.1961 76.1602 30.1961 75.6083 30.1961C75.0564 30.1961 74.5046 30.1961 73.9527 30.1961C73.9527 30.1961 73.9527 30.1961 73.4008 30.1961C72.8489 30.1961 72.297 30.7451 71.7451 31.2941L46.9102 64.2353L43.047 57.098H47.4621C48.5659 57.098 49.6697 56.549 50.2215 55.451C50.7734 54.3529 50.7734 53.2549 50.2215 52.1569L41.9432 37.3333H45.2546C46.3583 37.3333 47.4621 36.7843 48.014 35.6863C48.5659 34.5882 48.5659 33.4902 48.014 32.3922L30.3536 1.64706C29.8017 0.54902 28.698 0 27.5942 0C26.4904 0 25.3866 0.54902 24.8348 1.64706L7.17438 32.3922C6.62249 33.4902 6.62249 34.5882 7.17438 35.6863C7.72627 36.7843 8.83004 37.3333 9.93381 37.3333H13.2451L3.86306 52.7059C3.31117 53.8039 3.31117 54.902 3.86306 56C4.41495 57.098 5.51872 57.6471 6.62249 57.6471H11.0376L-0.000147432 76.3137C-0.552034 77.4118 -0.552034 78.5098 -0.000147432 79.6078C0.551739 80.7059 1.65551 81.2549 2.75929 81.2549H34.2168L33.6649 81.8039C33.1131 82.3529 33.1131 82.902 33.1131 84V108.706C33.1131 110.353 34.7687 112 36.4244 112H75.0564H113.689C115.344 112 117 110.353 117 108.706V84C117 83.451 117 82.3529 116.448 81.8039ZM40.2876 85.098L43.047 81.2549L51.3253 70.8235L72.297 43.3726V105.412H40.2876V85.098ZM8.83004 74.6667L19.8678 56C20.4197 54.902 20.4197 53.8039 19.8678 52.7059C19.3159 51.6078 18.2121 51.0588 17.1083 51.0588H12.6932L21.5234 35.6863C22.0753 34.5882 22.0753 33.4902 21.5234 32.3922C20.9715 31.2941 19.8678 30.7451 18.764 30.7451H15.4527L27.5942 9.88235L39.7357 30.7451H36.4244C35.3206 30.7451 34.2168 31.2941 33.6649 32.3922C33.1131 33.4902 33.1131 34.5882 33.6649 35.6863L42.4951 51.0588H38.08C36.9763 51.0588 35.8725 51.6078 35.3206 52.7059C34.7687 53.8039 34.7687 54.902 35.3206 56L43.5989 70.2745L40.2876 74.6667H8.83004ZM110.377 105.412H78.3678V43.3726L110.377 85.098V105.412Z" fill="white"/>
</g>
<defs>
<clipPath id="clip0_215_144">
<rect width="117" height="112" fill="white"/>
</clipPath>
</defs>
</svg>
