<svg width="158" height="149" viewBox="0 0 158 149" fill="none" xmlns="http://www.w3.org/2000/svg">
<g clip-path="url(#clip0_215_76)">
<path d="M62.6984 28.6778H14.4206C6.26984 28.6778 0 21.8201 0 14.3389C0 6.23431 6.26984 0 14.4206 0H62.6984C70.8492 0 77.119 6.23431 77.119 14.3389C77.119 21.8201 70.8492 28.6778 62.6984 28.6778ZM14.4206 7.48117C10.6587 7.48117 7.52381 10.5983 7.52381 14.3389C7.52381 18.0795 10.6587 21.1967 14.4206 21.1967H62.6984C66.4603 21.1967 69.5952 18.0795 69.5952 14.3389C69.5952 10.5983 66.4603 7.48117 62.6984 7.48117H14.4206Z" fill="white"/>
<path d="M9.40479 21.1963V94.7611H67.7143V21.1963H9.40479ZM16.9286 87.28V28.6775H60.1905V87.28H16.9286Z" fill="white"/>
<path d="M137.31 63.5899V89.1506C137.31 91.0209 135.429 92.8912 133.548 92.8912C131.667 92.8912 129.786 91.0209 129.786 89.1506V63.5899C129.786 59.2259 126.651 55.4853 122.889 55.4853H68.9685C68.3415 55.4853 67.7145 55.4853 67.0875 54.8619C65.8336 54.2385 64.5796 52.9916 64.5796 51.7447C64.5796 50.4979 65.2066 48.6276 67.0875 48.6276C67.7145 48.6276 68.3415 48.0041 68.9685 48.0041H122.889C131.04 47.3807 137.31 54.8619 137.31 63.5899Z" fill="white"/>
<path d="M154.238 131.544C152.984 131.544 151.73 130.92 151.103 129.674L139.19 106.607C137.31 103.489 136.683 101.619 135.429 99.1255C133.548 94.7614 133.548 94.7614 131.667 94.7614H14.4206C10.6587 94.7614 7.52381 99.1255 7.52381 104.736V127.803C7.52381 129.674 5.64286 131.544 3.7619 131.544C1.88095 131.544 0 129.674 0 127.803V104.736C0 95.3849 6.26984 87.2803 14.4206 87.2803H131.667C137.936 87.2803 139.817 91.0209 142.325 96.0083C142.952 97.8786 144.206 100.372 145.46 102.866L157.373 125.933C158.627 127.803 157.373 130.297 155.492 130.92C155.492 131.544 154.865 131.544 154.238 131.544Z" fill="white"/>
<path d="M29.4683 149C17.5556 149 8.15088 139.648 8.15088 127.803C8.15088 115.958 17.5556 106.606 29.4683 106.606C41.381 106.606 50.7858 115.958 50.7858 127.803C50.7858 139.648 40.7541 149 29.4683 149ZM29.4683 112.841C21.3175 112.841 14.4207 119.698 14.4207 127.803C14.4207 135.908 21.3175 142.765 29.4683 142.765C37.6191 142.765 44.516 135.908 44.516 127.803C44.516 119.698 37.6191 112.841 29.4683 112.841Z" fill="white"/>
<path d="M72.1031 149C60.1904 149 50.7856 139.648 50.7856 127.803C50.7856 115.958 60.1904 106.606 72.1031 106.606C84.0158 106.606 93.4206 115.958 93.4206 127.803C93.4206 139.648 84.0158 149 72.1031 149ZM72.1031 112.841C63.9523 112.841 57.0555 119.698 57.0555 127.803C57.0555 135.908 63.9523 142.765 72.1031 142.765C80.2539 142.765 87.1507 135.908 87.1507 127.803C87.1507 119.698 80.8809 112.841 72.1031 112.841Z" fill="white"/>
<path d="M115.365 149C103.453 149 94.0479 139.648 94.0479 127.803C94.0479 115.958 103.453 106.606 115.365 106.606C127.278 106.606 136.683 115.958 136.683 127.803C136.683 139.648 127.278 149 115.365 149ZM115.365 112.841C107.215 112.841 100.318 119.698 100.318 127.803C100.318 135.908 107.215 142.765 115.365 142.765C123.516 142.765 130.413 135.908 130.413 127.803C130.413 119.698 123.516 112.841 115.365 112.841Z" fill="white"/>
<path d="M21.3175 131.544H3.7619C1.88095 131.544 0 129.673 0 127.803C0 125.933 1.88095 124.062 3.7619 124.062H21.3175C23.1984 124.062 25.0794 125.933 25.0794 127.803C25.0794 129.673 23.1984 131.544 21.3175 131.544Z" fill="white"/>
<path d="M154.238 131.544H124.77C122.889 131.544 121.008 129.673 121.008 127.803C121.008 125.933 122.889 124.062 124.77 124.062H154.238C156.119 124.062 158 125.933 158 127.803C158 129.673 156.746 131.544 154.238 131.544Z" fill="white"/>
<path d="M62.0712 131.544H38.2458C36.3648 131.544 34.4839 129.673 34.4839 127.803C34.4839 125.933 36.3648 124.062 38.2458 124.062H62.0712C63.9521 124.062 65.8331 125.933 65.8331 127.803C65.8331 129.673 63.9521 131.544 62.0712 131.544Z" fill="white"/>
<path d="M105.96 131.544H82.135C80.254 131.544 78.373 129.673 78.373 127.803C78.373 125.933 80.254 124.062 82.135 124.062H105.96C107.841 124.062 109.722 125.933 109.722 127.803C109.722 129.673 107.841 131.544 105.96 131.544Z" fill="white"/>
<path d="M124.143 6.23413C122.262 3.11698 119.127 1.87012 115.992 1.87012H97.8096C94.6746 1.87012 91.5397 3.74041 89.6588 6.23413C87.7778 9.35129 87.7778 12.4684 89.6588 15.5856L95.9286 26.1839L97.8096 29.9245L99.0635 31.1714C99.6905 32.4182 100.317 33.0417 101.571 33.6651V31.7948C101.571 31.1714 102.198 30.5479 102.825 30.5479H111.603C112.23 30.5479 112.857 31.1714 112.857 31.7948V33.6651C113.484 33.0417 114.738 31.7948 115.365 31.1714L116.619 29.3011L118.5 25.5605L124.77 14.9622C126.024 12.4684 126.024 9.35129 124.143 6.23413ZM108.468 27.4308C107.841 28.0542 107.214 28.0542 106.587 28.0542C106.587 28.0542 105.333 28.0542 104.706 27.4308L104.079 26.8074L101.571 23.0668L95.3016 11.845C94.6746 11.2216 95.3016 9.97472 95.3016 9.97472C95.3016 9.97472 95.9286 9.35129 97.1826 9.35129H115.365C115.992 9.35129 116.619 9.97472 117.246 9.97472C117.246 9.97472 117.873 11.2216 117.246 11.845L110.976 23.0668L108.468 26.8074V27.4308Z" fill="white"/>
<path d="M115.992 29.3017C115.365 27.4314 113.484 26.1846 111.603 26.1846H102.825C100.944 26.1846 99.0635 27.4314 98.4366 29.3017C97.8096 29.9252 97.8096 30.5486 97.8096 31.7954V46.1344C97.8096 46.7578 97.8096 46.7578 97.8096 47.3812C98.4366 49.8749 100.318 51.1218 102.825 51.1218H111.603C114.111 51.1218 115.992 49.2515 116.619 47.3812C116.619 46.7578 116.619 46.7578 116.619 46.1344V31.7954C116.619 31.172 116.619 29.9252 115.992 29.3017ZM102.825 47.3812C102.198 47.3812 101.571 46.7578 101.571 46.1344V31.7954C101.571 31.172 102.198 30.5486 102.825 30.5486H111.603C112.23 30.5486 112.857 31.172 112.857 31.7954V46.1344C112.857 46.7578 112.23 47.3812 111.603 47.3812H102.825Z" fill="white"/>
<path d="M118.5 26.1845C116.619 24.3142 114.738 23.0674 111.603 23.0674H102.826C100.318 23.0674 97.8098 24.3142 96.5558 26.1845C95.3018 28.0548 94.0479 29.9251 94.0479 31.7954V46.1343C94.0479 46.7578 94.0479 46.7578 94.0479 47.3812C94.6748 51.7452 98.4367 54.8624 102.826 54.8624H111.603C115.992 54.8624 119.754 51.7452 120.381 47.3812C120.381 46.7578 120.381 46.7578 120.381 46.1343V31.7954C120.381 29.3017 119.754 27.4314 118.5 26.1845ZM100.945 46.1343V31.7954C100.945 31.172 101.572 30.5486 102.199 30.5486H110.976C112.23 30.5486 112.857 31.172 112.857 31.7954V46.1343C112.857 46.7578 112.23 47.3812 111.603 47.3812H102.826C101.572 47.3812 100.945 46.7578 100.945 46.1343Z" fill="white"/>
<path d="M42.0079 43.0166H34.4841C31.3492 43.0166 29.4683 45.5103 29.4683 48.004V54.8618C29.4683 57.9789 31.9762 59.8492 34.4841 59.8492H42.0079C45.1429 59.8492 47.0238 57.3555 47.0238 54.8618V48.004C47.6508 44.8869 45.1429 43.0166 42.0079 43.0166ZM43.8889 54.8618C43.8889 55.4852 43.2619 56.1087 42.0079 56.1087H34.4841C33.8572 56.1087 33.2302 55.4852 33.2302 54.8618V48.004C33.2302 47.3806 33.8572 46.7572 34.4841 46.7572H42.0079C43.2619 46.7572 43.8889 47.3806 43.8889 48.004V54.8618Z" fill="white"/>
<path d="M42.0081 39.2764H34.4843C29.4684 39.2764 25.7065 43.017 25.7065 48.0044V54.8621C25.7065 59.8496 29.4684 63.5902 34.4843 63.5902H42.0081C47.024 63.5902 50.7859 59.8496 50.7859 54.8621V48.0044C51.4129 43.017 47.024 39.2764 42.0081 39.2764ZM43.8891 54.8621C43.8891 55.4856 43.2621 56.109 42.0081 56.109H34.4843C33.8573 56.109 33.2304 55.4856 33.2304 54.8621V48.0044C33.2304 47.381 33.8573 46.7575 34.4843 46.7575H42.0081C43.2621 46.7575 43.8891 47.381 43.8891 48.0044V54.8621Z" fill="white"/>
</g>
<defs>
<clipPath id="clip0_215_76">
<rect width="158" height="149" fill="white"/>
</clipPath>
</defs>
</svg>
