<svg width="139" height="117" viewBox="0 0 139 117" fill="none" xmlns="http://www.w3.org/2000/svg">
<g clip-path="url(#clip0_215_115)">
<path d="M4.10838 117C2.05419 117 0 114.873 0 112.745V4.25455C0 2.12727 2.05419 0 4.10838 0C6.16256 0 8.21675 2.12727 8.21675 4.25455V112.745C8.21675 114.873 6.16256 117 4.10838 117Z" fill="white"/>
<path d="M134.892 117C132.837 117 130.783 114.873 130.783 112.745V4.25455C130.783 2.12727 132.837 0 134.892 0C136.946 0 139 2.12727 139 4.25455V112.745C139 114.873 136.946 117 134.892 117Z" fill="white"/>
<path d="M121.882 79.4182C119.828 79.4182 117.773 77.2909 117.773 75.1636V4.25455C117.773 2.12727 119.828 0 121.882 0C123.936 0 125.99 2.12727 125.99 4.25455V75.1636C125.99 77.2909 123.936 79.4182 121.882 79.4182Z" fill="white"/>
<path d="M108.872 79.4182C106.818 79.4182 104.764 77.2909 104.764 75.1636V4.25455C104.764 2.12727 106.818 0 108.872 0C110.926 0 112.98 2.12727 112.98 4.25455V75.1636C112.98 77.2909 110.926 79.4182 108.872 79.4182Z" fill="white"/>
<path d="M95.8623 79.4182C93.8081 79.4182 91.7539 77.2909 91.7539 75.1636V4.25455C91.7539 2.12727 93.1234 0 95.8623 0C98.6012 0 99.9707 2.12727 99.9707 4.25455V75.1636C99.9707 77.2909 97.9165 79.4182 95.8623 79.4182Z" fill="white"/>
<path d="M82.852 79.4182C80.7978 79.4182 78.7437 77.2909 78.7437 75.1636V4.25455C78.7437 2.12727 80.7978 0 82.852 0C84.9062 0 86.9604 2.12727 86.9604 4.25455V75.1636C86.9604 77.2909 84.9062 79.4182 82.852 79.4182Z" fill="white"/>
<path d="M69.1577 79.4182C67.1035 79.4182 65.0493 77.2909 65.0493 75.1636V4.25455C65.0493 2.12727 67.1035 0 69.1577 0C71.2119 0 73.2661 2.12727 73.2661 4.25455V75.1636C73.2661 77.2909 71.8966 79.4182 69.1577 79.4182Z" fill="white"/>
<path d="M56.1479 79.4182C54.0937 79.4182 52.0396 77.2909 52.0396 75.1636V4.25455C52.0396 2.12727 54.0937 0 56.1479 0C58.2021 0 60.2563 2.12727 60.2563 4.25455V75.1636C60.2563 77.2909 58.8868 79.4182 56.1479 79.4182Z" fill="white"/>
<path d="M43.1382 104.945C41.084 104.945 39.0298 102.818 39.0298 100.691V4.25455C39.0298 2.12727 41.084 0 43.1382 0C45.1923 0 47.2465 2.12727 47.2465 4.25455V100.691C47.2465 102.818 45.8771 104.945 43.1382 104.945Z" fill="white"/>
<path d="M30.1279 79.4182C28.0737 79.4182 26.0195 77.2909 26.0195 75.1636V4.25455C26.0195 2.12727 28.0737 0 30.1279 0C32.1821 0 34.2363 2.12727 34.2363 4.25455V75.1636C34.2363 77.2909 32.8668 79.4182 30.1279 79.4182Z" fill="white"/>
<path d="M17.1181 79.4182C15.064 79.4182 13.0098 77.2909 13.0098 75.1636V4.25455C13.0098 2.12727 15.064 0 17.1181 0C19.1723 0 21.2265 2.12727 21.2265 4.25455V75.1636C21.2265 77.2909 19.1723 79.4182 17.1181 79.4182Z" fill="white"/>
</g>
<defs>
<clipPath id="clip0_215_115">
<rect width="139" height="117" fill="white"/>
</clipPath>
</defs>
</svg>
