<svg width="133" height="133" viewBox="0 0 133 133" fill="none" xmlns="http://www.w3.org/2000/svg">
<g clip-path="url(#clip0_215_147)">
<path d="M132.379 57.6748C131.757 53.3243 130.763 49.0981 129.396 44.9963C129.396 44.872 129.271 44.7477 129.271 44.6234C129.147 44.1262 129.023 43.7533 128.774 43.2561C127.407 39.5271 125.791 36.0467 123.678 32.5664C121.565 28.9617 119.079 25.4813 116.22 22.3738C109.383 14.2944 100.558 7.95514 90.2413 4.22617C84.275 1.86449 78.1843 0.621495 71.5965 0C71.5965 0 70.975 0 70.3535 0C69.8563 0 69.4834 0 69.1105 0.124299C68.2404 0.124299 67.3703 0 66.6245 0C32.318 0 4.22638 25.7299 0.497409 58.7935C0.37311 59.7878 0.248811 60.7822 0.248811 61.6523V61.7766C0.248811 62.5224 0.124512 63.3925 0.124512 64.1383C0.124512 64.5112 0.124512 65.0084 0.124512 65.3813C0.124512 65.6299 0.124512 66.0028 0.124512 66.2514C0.124512 66.3757 0.124512 66.6243 0.124512 66.7486C0.124512 74.5794 1.4918 82.0374 4.10208 89.1224C4.35068 89.7439 4.59928 90.3654 4.84788 90.9869C14.046 113.858 35.5497 130.39 61.2797 132.503C61.7768 132.503 62.274 132.627 62.6469 132.627C62.8955 132.627 63.0198 132.627 63.2684 132.627C64.3871 132.627 65.5058 132.751 66.5002 132.751C67.246 132.751 67.9918 132.751 68.8619 132.751C71.7208 132.627 74.4554 132.378 77.1899 132.006C91.36 129.893 104.039 123.553 114.355 112.739C122.808 104.287 128.153 94.7159 131.26 83.2804C131.633 81.043 131.882 78.9299 132.254 76.8168C132.254 76.5682 132.379 76.3196 132.379 76.071C132.627 74.4551 132.876 72.9635 133.125 71.2234C133.125 70.6019 133.125 69.9804 133.125 69.4832C133.125 67.1215 133.125 65.257 133.125 62.8953C133 61.1551 132.752 59.415 132.379 57.6748ZM66.5002 126.785C60.9068 126.785 55.5619 126.039 50.3413 124.548C48.6011 117.463 46.1152 110.378 43.7535 103.293C43.132 102.671 43.132 102.05 43.7535 101.552C46.7367 97.3262 49.7198 93.1 52.8273 88.9981C53.4488 88.9981 54.0703 88.3766 54.6918 88.3766C62.5226 88.3766 70.975 88.3766 78.8058 88.3766C79.4273 88.3766 80.0488 88.3766 80.6703 88.9981C84.275 93.2243 87.2581 97.4505 90.3656 101.552C90.3656 102.174 90.3656 102.795 90.3656 103.293C88.0039 110.378 85.6423 117.338 83.2806 124.423C77.8114 125.915 72.218 126.785 66.5002 126.785ZM114.355 29.8318V29.9561C111.869 36.0467 110.129 42.6346 108.265 49.2224C107.643 50.4654 107.022 50.9626 106.4 50.9626C100.931 52.7028 96.2077 53.9458 91.36 55.8103C90.7385 55.8103 90.117 55.8103 89.4955 55.1888C82.9077 50.9626 76.817 46.2393 70.2292 41.3916C69.6077 40.7701 68.9862 40.1486 68.9862 39.6514C68.9862 34.3065 68.9862 29.4589 68.9862 23.9897C68.9862 23.3682 69.6077 22.7467 70.2292 22.2495C75.8226 18.272 81.4161 13.9215 87.1339 9.94392C98.0722 13.7972 107.395 20.8822 114.355 29.8318ZM19.3909 28.9617C26.3516 20.2607 35.7983 13.4243 46.4881 9.57103C52.2058 13.6729 57.9236 18.1477 63.6413 22.1252C63.6413 22.7467 64.2628 23.3682 64.2628 23.8654C64.2628 26.2271 64.2628 29.2103 64.2628 31.6963C64.2628 34.1822 64.8843 37.0411 64.8843 39.5271C64.8843 40.1486 64.8843 40.7701 64.2628 41.2673C57.675 46.115 50.9628 50.8383 44.375 55.686C43.7535 55.686 43.132 55.686 42.5105 55.686C37.0413 53.9458 32.318 52.7028 27.4703 50.8383C26.8488 50.8383 26.2273 50.2168 26.2273 49.5953C23.9899 42.8832 21.7525 35.9224 19.3909 28.9617ZM22.1254 51.0869C22.1254 51.7084 22.1254 51.7084 21.5039 52.3299C16.2834 55.8103 11.56 59.9121 6.21517 63.3925C6.83666 52.4542 10.317 42.2617 15.9105 33.685C17.0292 37.7869 18.5208 41.3916 19.6395 45.1206C20.3853 46.8607 20.8825 48.6009 22.1254 51.0869ZM47.4825 58.7935C53.4488 53.9458 60.161 49.8439 66.1273 44.9963C66.7488 44.3748 67.3703 44.3748 67.9918 44.9963C73.9582 49.8439 80.6703 53.9458 86.6367 58.7935C87.2581 59.415 87.2581 60.0364 87.2581 60.5336C84.8965 67.743 82.4105 74.9523 80.0488 82.1617C79.4273 83.4047 79.4273 83.4047 78.1843 83.4047C74.5797 83.4047 70.3535 83.4047 66.7488 83.4047C63.1441 83.4047 58.918 83.4047 55.9348 84.0262C54.6918 84.0262 54.0703 83.4047 54.0703 82.7832C51.7086 74.9523 49.2226 67.743 46.861 60.5336C46.861 59.415 46.861 59.415 47.4825 58.7935ZM67.8675 18.0234C67.246 18.6449 66.6245 18.6449 66.003 18.0234C61.2797 14.7916 56.432 11.6841 51.7086 8.07944C56.432 6.83645 61.404 6.21495 66.3759 6.21495C71.5965 6.21495 76.6927 6.83645 81.5404 8.20374C77.1899 11.4355 72.3423 14.6673 67.8675 18.0234ZM23.3684 55.8103C24.6114 55.1888 25.2329 55.1888 25.7301 55.1888C31.1993 56.929 35.9226 58.172 41.3918 60.5336C42.0133 60.5336 42.6348 61.1551 42.6348 61.7766C44.9965 69.6075 47.4825 76.8168 49.8441 84.6477C50.4656 85.2692 50.4656 85.8906 49.8441 86.3878C46.2395 90.614 43.2563 94.8402 40.1488 98.942C39.5273 98.942 38.9058 99.5635 38.2843 99.5635C34.0582 99.5635 30.4535 99.5635 26.8488 99.5635C23.4927 99.5635 20.1367 99.5635 16.4077 100.061C10.1927 90.8626 6.46376 79.9243 6.21517 68.2402C11.9329 63.7654 17.6507 59.7878 23.3684 55.8103ZM19.7638 104.536C25.2329 104.536 30.5778 104.536 35.4254 105.157C36.6684 105.157 38.4086 104.536 39.0301 105.157C39.6516 105.778 39.6516 106.897 40.2731 108.14C42.0133 112.864 43.2563 118.084 44.9965 122.807C35.0526 118.954 26.3516 112.615 19.7638 104.536ZM88.874 122.435C90.9871 116.841 92.7273 111.248 94.4675 105.654C94.4675 105.033 95.089 104.411 95.7105 104.411C101.801 104.411 107.395 104.411 113.361 104.411C106.897 112.366 98.4451 118.581 88.874 122.435ZM106.525 99.6878C102.92 99.6878 100.061 99.6879 96.5806 99.3149C95.089 99.4392 94.4675 99.0663 93.846 98.4449C90.8628 94.2187 87.8796 89.9925 84.7722 85.8906C84.1507 85.2692 84.1507 84.6477 84.1507 84.1505C86.5124 76.3196 88.9983 69.1103 91.36 61.2794C91.36 60.6579 91.9815 60.0364 92.603 60.0364C98.0722 58.2963 102.796 57.0533 108.265 55.1888C108.886 54.5673 109.508 54.5673 110.129 55.1888C115.723 59.0421 121.192 63.3925 126.785 67.3701C126.661 79.3028 122.932 90.3654 116.841 99.5635C113.485 99.6878 109.756 99.6878 106.525 99.6878ZM120.322 57.6748C117.96 55.9346 114.853 54.0701 113.112 52.3299C112.491 52.3299 112.491 51.7084 112.491 51.0869C114.107 45.8664 116.096 40.2729 117.711 34.928C122.683 43.0075 125.915 52.3299 126.537 62.3981C124.299 60.9065 122.186 59.415 120.322 57.6748Z" fill="white"/>
</g>
<defs>
<clipPath id="clip0_215_147">
<rect width="133" height="133" fill="white"/>
</clipPath>
</defs>
</svg>
