<svg width="175" height="166" viewBox="0 0 175 166" fill="none" xmlns="http://www.w3.org/2000/svg">
<g clip-path="url(#clip0_215_52)">
<path d="M172.785 33.9541C172.046 33.9541 171.308 33.9541 170.57 33.9541H165.401V40.745H169.831C170.57 40.745 172.046 40.745 172.785 40.745C174.262 39.9905 175 39.2359 175 37.7268C175 35.4632 174.262 34.7086 172.785 33.9541Z" fill="white"/>
<path d="M47.9957 37.7272C47.9957 39.2362 47.2573 40.7453 45.0421 40.7453C44.3038 40.7453 43.5654 40.7453 42.827 40.7453H35.443C31.751 40.7453 28.7974 40.7453 25.1054 40.7453C22.8903 40.7453 22.1519 39.2362 22.1519 37.7272C22.1519 35.4635 22.8903 34.709 25.1054 34.709C31.751 34.709 38.3966 34.709 45.0421 34.709C46.5189 33.9544 47.9957 35.4635 47.9957 37.7272Z" fill="white"/>
<path d="M47.9956 24.1458C47.9956 25.6549 47.2572 27.164 45.7804 27.164C45.042 27.164 44.3036 27.164 43.5652 27.164H35.4429C31.7509 27.164 28.7973 27.164 25.1053 27.164C24.3669 27.164 22.8901 25.6549 22.8901 24.9003C22.8901 24.1458 22.8901 22.6367 23.6285 21.8821C24.3669 21.1276 25.8437 21.1276 27.3205 20.373C32.4893 20.373 37.6581 20.373 42.8268 20.373C43.5652 20.373 45.042 20.373 45.7804 20.373C47.2572 21.1276 47.9956 22.6367 47.9956 24.1458Z" fill="white"/>
<path d="M157.278 33.9544C156.54 31.6908 156.54 30.1817 155.802 28.6726C153.587 23.3908 149.156 21.1271 143.249 21.1271H132.173C131.435 21.1271 130.696 21.1271 129.958 19.6181C127.743 13.5817 124.051 10.5635 118.143 9.05442C103.376 6.79078 89.346 3.7726 74.5781 1.50896C65.7173 -0.000129998 56.1181 -0.000129998 46.519 0.754416C37.6582 1.50896 29.5359 2.26351 20.6751 3.7726C10.3376 6.03623 1.47679 15.8453 0 27.1635C0 27.1635 0 27.9181 0 28.6726V46.7817C0.738397 50.5544 1.47679 55.0817 3.69198 58.8544C6.64557 64.1362 10.3376 67.909 15.5063 70.1726C16.9831 70.9272 16.9831 71.6817 16.9831 73.1908C16.2447 81.4908 15.5063 89.0362 15.5063 97.3362C15.5063 106.391 15.5063 115.445 15.5063 123.745C15.5063 125.254 15.5063 126.764 14.7679 128.273C13.2911 134.309 11.0759 139.591 9.59916 144.873C9.59916 145.627 9.59916 146.382 9.59916 147.136C9.59916 151.664 9.59916 155.436 9.59916 159.964C9.59916 164.491 11.8143 166.754 16.2447 166.754C32.4895 166.754 47.9958 166.754 64.2405 166.754C67.9325 166.754 70.8861 163.736 70.8861 159.964C70.8861 155.436 70.8861 150.909 70.8861 147.136C70.8861 146.382 70.1477 144.873 69.4093 144.118C64.2405 138.082 58.3333 132.045 52.4262 126.009C51.6878 125.254 50.9494 124.5 50.9494 123.745C50.9494 116.954 50.9494 110.164 50.9494 103.373H55.3797C59.0717 103.373 59.8101 102.618 60.5485 98.8453C62.0253 91.2999 63.5021 84.509 64.9789 76.9635C64.9789 76.209 64.9789 75.4544 65.7173 75.4544C69.4093 74.6999 73.8397 74.6999 77.5316 73.9453C90.8228 71.6817 104.852 69.4181 118.143 67.1544C124.051 66.3999 128.481 62.6271 129.958 56.5908C129.958 55.0817 130.696 55.0817 131.435 55.0817C135.865 55.0817 140.295 55.0817 144.726 55.0817C151.371 54.3271 155.802 49.7999 155.802 43.009V42.2544H167.616V33.9544H157.278ZM64.2405 159.209H16.2447V149.4H64.2405V159.209ZM59.0717 142.609H16.9831C18.4599 138.082 19.9367 134.309 20.6751 129.782C20.6751 129.027 21.4135 129.027 22.1519 129.027C29.5359 129.027 36.9198 129.027 45.0422 129.027C45.7806 129.027 46.519 129.027 46.519 129.782C50.9494 133.554 55.3797 138.082 59.0717 142.609ZM24.3671 72.4362C31.0127 73.1908 37.6582 73.9453 44.3038 74.6999V122.236H22.1519C22.1519 104.882 22.8903 88.2817 24.3671 72.4362ZM55.3797 95.8271H51.6878V75.4544H59.0717C57.5949 82.2453 56.1181 89.0362 55.3797 95.8271ZM98.9451 59.609V61.8726C98.2067 61.8726 98.2068 61.8726 98.2068 61.8726C89.346 63.3817 80.4852 65.6453 70.8861 66.3999C55.3798 68.6635 39.135 67.909 22.8903 64.1362C13.2911 61.8726 6.64557 54.3271 6.64557 43.7635V31.6908C6.64557 21.1271 12.5527 12.8271 22.8903 10.5635C29.5359 9.05442 36.1814 8.29987 42.827 7.54532C53.903 6.79078 64.9789 6.79078 76.0549 8.29987C83.4388 9.05442 90.0844 11.3181 96.73 12.0726C98.9452 12.0726 98.9451 12.8271 98.9451 15.0908C98.9451 30.1817 98.9451 45.2726 98.9451 59.609ZM124.789 50.5544C124.789 54.3271 122.574 57.3453 119.62 58.8544C115.19 60.3635 110.759 60.3635 105.591 61.8726V13.5817C106.329 13.5817 106.329 13.5817 107.068 13.5817C110.759 14.3362 114.451 15.0908 118.143 15.8453C121.835 16.5999 124.789 19.6181 124.789 24.1453C124.789 33.1999 124.789 42.2544 124.789 50.5544ZM150.633 39.9908C150.633 44.5181 147.679 47.5362 143.249 47.5362H132.911C132.173 47.5362 132.173 47.5362 131.435 47.5362C131.435 40.7453 131.435 33.9544 131.435 27.1635C135.865 27.1635 140.295 27.1635 144.726 27.1635C148.418 27.1635 150.633 30.1817 150.633 33.9544V39.9908Z" fill="white"/>
<path d="M47.9957 37.7272C47.9957 39.2362 47.2573 40.7453 45.0421 40.7453C44.3038 40.7453 43.5654 40.7453 42.827 40.7453H35.443C31.751 40.7453 28.7974 40.7453 25.1054 40.7453C22.8903 40.7453 22.1519 39.2362 22.1519 37.7272C22.1519 35.4635 22.8903 34.709 25.1054 34.709C31.751 34.709 38.3966 34.709 45.0421 34.709C46.5189 33.9544 47.9957 35.4635 47.9957 37.7272Z" fill="white"/>
<path d="M22.8901 24.9003C22.8901 24.1458 22.8901 22.6367 23.6285 21.8821C24.3669 21.1276 25.8437 21.1276 27.3205 20.373C32.4893 20.373 37.6581 20.373 42.8268 20.373C43.5652 20.373 45.042 20.373 45.7804 20.373C47.2572 20.373 47.9956 21.8821 47.9956 23.3912C47.9956 24.9003 47.2572 26.4094 45.7804 26.4094C45.042 26.4094 44.3036 26.4094 43.5652 26.4094H35.4429C31.7509 26.4094 28.7973 26.4094 25.1053 26.4094C24.3669 27.164 22.8901 26.4094 22.8901 24.9003Z" fill="white"/>
<path d="M47.9956 24.1458C47.9956 25.6549 47.2572 27.164 45.7804 27.164C45.042 27.164 44.3036 27.164 43.5652 27.164H35.4429C31.7509 27.164 28.7973 27.164 25.1053 27.164C24.3669 27.164 22.8901 25.6549 22.8901 24.9003C22.8901 24.1458 22.8901 22.6367 23.6285 21.8821C24.3669 21.1276 25.8437 21.1276 27.3205 20.373C32.4893 20.373 37.6581 20.373 42.8268 20.373C43.5652 20.373 45.042 20.373 45.7804 20.373C47.2572 21.1276 47.9956 22.6367 47.9956 24.1458Z" fill="white"/>
<path d="M47.9957 37.7272C47.9957 39.2362 47.2573 40.7453 45.0421 40.7453C44.3038 40.7453 43.5654 40.7453 42.827 40.7453H35.443C31.751 40.7453 28.7974 40.7453 25.1054 40.7453C22.8903 40.7453 22.1519 39.2362 22.1519 37.7272C22.1519 35.4635 22.8903 34.709 25.1054 34.709C31.751 34.709 38.3966 34.709 45.0421 34.709C46.5189 33.9544 47.9957 35.4635 47.9957 37.7272Z" fill="white"/>
</g>
<defs>
<clipPath id="clip0_215_52">
<rect width="175" height="166" fill="white"/>
</clipPath>
</defs>
</svg>
