<svg width="207" height="153" viewBox="0 0 207 153" fill="none" xmlns="http://www.w3.org/2000/svg">
<path d="M17.4423 49.4129C17.4423 46.1789 17.4423 43.0323 17.4423 39.9731C17.5326 30.883 20.6033 22.7542 26.4736 15.7618C33.0664 7.98273 41.4654 3.35024 51.5804 1.60213C53.5673 1.2525 55.6445 1.07769 57.6313 1.07769C88.2472 1.07769 118.863 0.902883 149.479 1.07769C163.206 1.1651 174.134 7.02127 182.172 17.7721C187.41 24.852 189.758 32.8933 189.578 41.5464C189.487 44.0812 189.578 46.6159 189.578 48.8885C192.016 50.1122 194.545 50.9862 196.622 52.4721C203.215 57.0172 206.556 63.3978 205.924 71.2643C205.292 79.2182 200.686 84.7247 193.461 88.2209C192.558 88.658 192.016 89.095 191.655 90.0565C188.584 97.923 185.423 105.789 182.353 113.656C181.269 116.366 179.914 119.075 177.656 121.085C177.205 121.522 177.386 121.872 177.566 122.309C179.824 126.679 182.082 131.05 184.249 135.42C188.133 143.024 182.985 151.59 174.315 151.94C169.528 152.114 165.735 150.017 163.477 145.821C160.497 140.227 157.697 134.633 154.898 128.952C154.536 128.253 154.175 128.078 153.362 128.078C138.28 128.078 123.198 128.078 108.116 128.078C95.2916 128.078 82.4672 128.078 69.6429 128.078C64.3144 128.078 58.986 128.078 53.5673 128.078C52.8448 128.078 52.4835 128.34 52.1223 128.952C49.3226 134.546 46.5229 140.14 43.6329 145.734C39.6592 153.338 28.7314 154.212 23.6739 147.307C20.9645 143.636 20.6936 139.703 22.6804 135.595C24.9383 131.137 27.1961 126.679 29.4539 122.222C29.6345 121.959 29.6345 121.348 29.4539 121.26C26.7445 118.725 25.3898 115.491 24.1254 112.17C21.0548 104.566 18.0745 96.8741 15.0039 89.2698C14.8233 88.9202 14.2814 88.5706 13.8298 88.3958C8.14016 85.7736 3.98579 81.6655 1.99892 75.8968C-0.800767 67.7681 2.45048 58.2409 9.67547 52.9965C12.0236 51.3358 14.5523 50.1122 17.4423 49.4129ZM181.269 48.8011C181.269 45.6545 181.359 42.4205 181.269 39.1865C180.998 31.4074 178.108 24.6772 172.599 18.9958C166.006 12.2656 157.878 9.119 148.305 9.119C118.412 9.119 88.4278 9.119 58.5345 9.119C56.0057 9.119 53.3866 9.29381 50.8579 9.90565C40.1107 12.4404 32.5245 18.6462 28.0992 28.4356C25.1189 35.0784 25.6607 41.9835 25.6607 48.8885C25.8414 48.9759 25.9317 49.0633 26.022 49.0633C26.2026 49.1507 26.4736 49.1507 26.6542 49.1507C33.6986 50.5492 38.756 54.4824 41.917 60.6008C43.1813 63.0482 44.1748 65.4955 45.3488 68.0303C46.7035 71.0021 48.0582 73.8865 49.5032 76.9456C85.4475 66.1074 121.482 65.6703 157.336 76.9456C159.775 71.6139 162.123 66.5444 164.471 61.3875C166.729 56.5802 170.161 52.9965 175.037 50.8114C177.115 50.0248 179.282 49.5003 181.269 48.8011ZM45.5295 87.5217C45.4392 87.3469 45.3488 87.2595 45.2585 87.1721C43.091 82.5396 40.9235 77.9945 38.756 73.362C37.6723 71.0021 36.3176 68.7295 35.5048 66.1948C33.5179 59.989 27.2864 55.9683 20.6936 56.9298C14.5523 57.8038 9.58515 62.8734 9.2239 68.7295C8.77234 75.0227 12.5655 80.4419 18.8873 82.1026C20.6033 82.5396 21.4161 83.3262 21.9579 84.8995C25.5704 94.2519 29.3636 103.604 33.247 112.869C33.7889 114.093 34.6017 115.404 35.6854 116.191C37.3111 117.327 39.2076 118.288 41.0139 119.075C44.807 120.736 48.9613 120.299 52.9351 120.386C81.2029 120.474 109.471 120.474 137.738 120.474C141.261 120.474 144.873 120.474 148.395 120.474C151.917 120.474 155.44 120.474 158.962 120.386C161.852 120.386 164.651 119.687 167.361 118.638C170.793 117.327 173.231 115.054 174.405 111.558C175.399 108.761 176.663 105.964 177.747 103.167C180.366 96.6119 182.985 90.0565 185.694 83.4137C185.875 83.064 186.417 82.7144 186.778 82.627C194.364 80.8789 198.88 74.5857 197.615 67.5059C196.622 62.1741 192.016 57.8038 186.417 57.0172C180.637 56.2305 175.037 58.9401 172.599 64.0096C170.341 68.6421 168.174 73.4494 166.006 78.1693C164.561 81.3159 163.026 84.4625 161.581 87.6965C161.22 87.5217 160.949 87.3469 160.678 87.1721C159.413 86.4728 158.149 85.5114 156.704 85.1618C149.75 83.3262 142.796 81.5781 135.752 80.0048C127.172 78.1693 118.412 77.2079 109.651 76.8582C100.801 76.5086 92.0403 77.0331 83.28 78.1693C75.5132 79.1308 67.7463 80.5293 60.1601 82.5396C55.1929 83.8507 50.0451 84.6373 45.8004 87.6965C45.7101 87.5217 45.6198 87.5217 45.5295 87.5217ZM36.9498 126.068C36.9498 126.068 36.8595 126.068 36.8595 126.155C34.5114 130.613 32.2536 135.07 29.9054 139.528C29.4539 140.489 29.5442 141.538 30.0861 142.5C31.3504 144.597 34.8726 144.772 36.2273 142.063C38.4851 137.605 40.8332 133.147 43.1813 128.69C43.362 128.427 43.4523 128.165 43.5426 127.903C41.2848 127.291 39.1173 126.679 36.9498 126.068ZM163.297 127.903C165.916 132.885 168.445 137.78 171.064 142.587C171.876 144.073 173.863 144.51 175.489 143.636C177.115 142.849 177.747 141.014 177.024 139.353C176.482 138.217 175.941 137.168 175.308 136.032C173.592 132.623 171.786 129.214 170.07 125.98C167.903 126.679 165.735 127.291 163.297 127.903Z" fill="white" stroke="#003CFF" stroke-width="0.3"/>
</svg>
