<svg width="28" height="26" viewBox="0 0 28 26" fill="none" xmlns="http://www.w3.org/2000/svg">
<path fill-rule="evenodd" clip-rule="evenodd" d="M18.1942 6.39725C18.1942 8.45442 16.3075 10.1221 13.9802 10.1221C11.6528 10.1221 9.76613 8.45442 9.76613 6.39725C9.76613 4.34007 11.6528 2.67241 13.9802 2.67241C16.3075 2.67241 18.1942 4.34007 18.1942 6.39725ZM20.7226 6.39725C20.7226 9.68873 17.7039 12.357 13.9802 12.357C10.2564 12.357 7.23772 9.68873 7.23772 6.39725C7.23772 3.10577 10.2564 0.4375 13.9802 0.4375C17.7039 0.4375 20.7226 3.10577 20.7226 6.39725ZM12.2949 12.7294C6.01104 12.7294 0.916992 17.2321 0.916992 22.7865V25.3938H27.044V22.7865C27.044 17.2321 21.9499 12.7294 15.6661 12.7294H12.2949ZM3.44541 22.7865C3.44541 18.4664 7.40745 14.9643 12.2949 14.9643H15.6661C20.5535 14.9643 24.5156 18.4664 24.5156 22.7865V23.1589H3.44541V22.7865Z" fill="#313030"/>
</svg>
